<svg width="90" height="102" viewBox="0 0 90 102" fill="none" xmlns="http://www.w3.org/2000/svg">
<g clip-path="url(#clip0_321_124)">
<path d="M34.1606 85.3621V61.4483L24.3066 56.9323V45.8997L43.8175 54.8921L43.8964 101.974L0 82.0939V33.6655L45.4204 13.1652L68.111 23.4186L56.8117 28.5421L45.2759 23.4384L11.1679 38.789V75.1152L34.1606 85.3621Z" fill="white"/>
<path d="M45.9854 102V89.8913L78.8321 75.1086V50.8581L45.9854 65.6738V53.565L25.8898 44.3679L70.0555 24.4618L79.2525 28.5222L45.3482 43.8992L56.3518 49.0226L90 33.6589V82.0873L45.9854 102Z" fill="white"/>
<path d="M56.7657 15.4297L68.0913 10.2403L45.3285 0L34.0029 5.12344L56.7657 15.4297Z" fill="white"/>
<path d="M33.8978 15.4297L22.5723 10.2403L45.335 0L56.6606 5.12344L33.8978 15.4297Z" fill="white"/>
</g>
<defs>
<clipPath id="clip0_321_124">
<rect width="90" height="102" fill="white"/>
</clipPath>
</defs>
</svg>
