<svg width="40" height="40" viewBox="0 0 40 40" fill="none" xmlns="http://www.w3.org/2000/svg">
<path fill-rule="evenodd" clip-rule="evenodd" d="M20.85 14.66V17.4883C21.4421 16.5859 22.2584 15.8527 23.2191 15.3607C24.1797 14.8687 25.2517 14.6347 26.33 14.6817C32.0883 14.6817 33.3333 18.2817 33.3333 22.965V32.5H28V24.0467C28 22.03 27.5933 19.4367 24.4533 19.4367C21.4083 19.4367 20.8883 21.6317 20.8883 23.8967V32.5H15.5717V14.66H20.85ZM12 10.1767C11.9993 10.705 11.8427 11.2214 11.5498 11.6611C11.2569 12.1008 10.8406 12.4442 10.3533 12.6483C9.86621 12.8508 9.32987 12.9038 8.81255 12.8005C8.29524 12.6972 7.82036 12.4423 7.44833 12.0683C7.07561 11.6941 6.82186 11.218 6.71898 10.6999C6.61611 10.1819 6.66872 9.64496 6.87018 9.15671C7.07165 8.66846 7.41297 8.25068 7.85124 7.9559C8.28951 7.66112 8.80516 7.5025 9.33333 7.5C9.6843 7.50022 10.0318 7.56967 10.3559 7.70439C10.68 7.8391 10.9743 8.03643 11.222 8.28507C11.4697 8.53371 11.6659 8.82877 11.7994 9.15337C11.9329 9.47796 12.0011 9.8257 12 10.1767Z" fill="#AE84E4"/>
<path d="M12 14.6817H6.66666V32.5H12V14.6817Z" fill="#AE84E4"/>
</svg>
