<svg width="21" height="20" viewBox="0 0 21 20" fill="none" xmlns="http://www.w3.org/2000/svg">
<path d="M20.3469 0.271384C20.3386 0.231865 20.3189 0.19549 20.2902 0.166524C20.2615 0.137559 20.225 0.117202 20.1849 0.107841C17.5107 -0.532033 11.3317 1.74819 7.98408 5.02308C7.387 5.6027 6.84268 6.23214 6.35729 6.90427C5.32495 6.8149 4.29262 6.88952 3.41279 7.26487C0.930357 8.33416 0.207588 11.1242 0.00623604 12.3244C-0.00518504 12.3901 -0.000877 12.4575 0.0188212 12.5213C0.0385194 12.5851 0.0730706 12.6435 0.119757 12.692C0.166444 12.7405 0.223993 12.7778 0.287878 12.8008C0.351764 12.8239 0.420243 12.8321 0.487929 12.8249L4.47434 12.3946C4.47719 12.6887 4.49532 12.9825 4.52868 13.2749C4.54874 13.4779 4.64082 13.6676 4.78893 13.8111L6.33263 15.3183C6.47937 15.463 6.67316 15.5531 6.88053 15.573C7.17756 15.6055 7.4761 15.6232 7.77497 15.6261L7.33757 19.5226C7.33027 19.5888 7.33875 19.6558 7.36234 19.7182C7.38592 19.7807 7.42398 19.837 7.47352 19.8827C7.52306 19.9283 7.58274 19.9622 7.64787 19.9815C7.71301 20.0008 7.78183 20.0051 7.84894 19.994C9.07303 19.8018 11.9289 19.0945 13.0152 16.665C13.3987 15.804 13.4772 14.7986 13.3886 13.7932C14.0771 13.3181 14.7219 12.7853 15.3159 12.2007C18.674 8.93069 20.9907 3.01855 20.3469 0.271384ZM11.9655 8.29975C11.6588 7.99985 11.45 7.61768 11.3653 7.20158C11.2806 6.78549 11.3239 6.35416 11.4898 5.96216C11.6556 5.57017 11.9365 5.23511 12.2969 4.99937C12.6574 4.76363 13.0811 4.6378 13.5147 4.6378C13.9482 4.6378 14.372 4.76363 14.7324 4.99937C15.0928 5.23511 15.3737 5.57017 15.5396 5.96216C15.7054 6.35416 15.7487 6.78549 15.664 7.20158C15.5794 7.61768 15.3705 7.99985 15.0638 8.29975C14.8605 8.49903 14.619 8.65713 14.3532 8.765C14.0874 8.87286 13.8024 8.92839 13.5147 8.92839C13.2269 8.92839 12.9419 8.87286 12.6761 8.765C12.4103 8.65713 12.1688 8.49903 11.9655 8.29975Z" fill="#ADA0CF"/>
<path d="M6.22762 16.4099C5.97741 16.6552 5.57608 16.7508 5.09301 16.8326C4.00772 17.0136 3.04935 16.0957 3.24431 15.022C3.31874 14.6149 3.53881 14.0443 3.67578 13.9103C3.70572 13.8815 3.72565 13.8443 3.73274 13.8038C3.73982 13.7634 3.73371 13.7218 3.71526 13.6849C3.69681 13.6481 3.66696 13.6178 3.62996 13.5985C3.59296 13.5792 3.55068 13.5718 3.50913 13.5774C2.90223 13.65 2.33761 13.9193 1.90516 14.3423C0.831738 15.3938 0.730377 19.2951 0.730377 19.2951C0.730377 19.2951 4.71907 19.1959 5.7925 18.1445C6.22609 17.7216 6.5016 17.1682 6.57462 16.5734C6.59151 16.3866 6.35911 16.2754 6.22762 16.4099Z" fill="#ADA0CF"/>
</svg>
