<svg width="883" height="342" viewBox="0 0 883 342" fill="none" xmlns="http://www.w3.org/2000/svg">
<mask id="mask0_105_64" style="mask-type:luminance" maskUnits="userSpaceOnUse" x="0" y="0" width="883" height="343">
<rect x="64" y="120" width="102" height="102" rx="6" fill="#535353" fill-opacity="0.1" stroke="#858585" stroke-width="2"/>
<rect x="183" y="120" width="102" height="102" rx="6" fill="#535353" fill-opacity="0.1" stroke="#858585" stroke-width="2"/>
<rect x="302" y="120" width="102" height="102" rx="6" fill="#535353" fill-opacity="0.1" stroke="#858585" stroke-width="2"/>
<rect x="421" y="120" width="102" height="102" rx="6" fill="#535353" fill-opacity="0.1" stroke="#858585" stroke-width="2"/>
<rect x="540" y="120" width="102" height="102" rx="6" fill="#535353" fill-opacity="0.1" stroke="#858585" stroke-width="2"/>
<rect x="659" y="120" width="102" height="102" rx="6" fill="#535353" fill-opacity="0.1" stroke="#858585" stroke-width="2"/>
<rect x="780" y="120" width="102" height="102" rx="6" fill="#535353" fill-opacity="0.1" stroke="#858585" stroke-width="2"/>
<rect x="1" y="1" width="102" height="102" rx="6" fill="#535353" fill-opacity="0.1" stroke="#858585" stroke-width="2"/>
<rect x="120" y="1" width="102" height="102" rx="6" fill="#535353" fill-opacity="0.1" stroke="#858585" stroke-width="2"/>
<rect x="239" y="1" width="102" height="102" rx="6" fill="#535353" fill-opacity="0.1" stroke="#858585" stroke-width="2"/>
<rect x="358" y="1" width="102" height="102" rx="6" fill="#535353" fill-opacity="0.1" stroke="#858585" stroke-width="2"/>
<rect x="477" y="1.00012" width="102" height="102" rx="6" fill="#535353" fill-opacity="0.1" stroke="#858585" stroke-width="2"/>
<rect x="596" y="1.00012" width="102" height="102" rx="6" fill="#535353" fill-opacity="0.1" stroke="#858585" stroke-width="2"/>
<rect x="715" y="1" width="102" height="102" rx="6" fill="#535353" fill-opacity="0.1" stroke="#858585" stroke-width="2"/>
<rect x="1" y="239" width="102" height="102" rx="6" fill="#535353" fill-opacity="0.1" stroke="#858585" stroke-width="2"/>
<rect x="120" y="239" width="102" height="102" rx="6" fill="#535353" fill-opacity="0.1" stroke="#858585" stroke-width="2"/>
<rect x="239" y="239" width="102" height="102" rx="6" fill="#535353" fill-opacity="0.1" stroke="#858585" stroke-width="2"/>
<rect x="358" y="239" width="102" height="102" rx="6" fill="#535353" fill-opacity="0.1" stroke="#858585" stroke-width="2"/>
<rect x="477" y="239" width="102" height="102" rx="6" fill="#535353" fill-opacity="0.1" stroke="#858585" stroke-width="2"/>
<rect x="596" y="239" width="102" height="102" rx="6" fill="#535353" fill-opacity="0.1" stroke="#858585" stroke-width="2"/>
<rect x="715" y="239" width="102" height="102" rx="6" fill="#535353" fill-opacity="0.1" stroke="#858585" stroke-width="2"/>
<g clip-path="url(#clip0_105_64)">
<path d="M235.906 176.469C238.709 175.162 239.919 171.827 238.611 169.02C237.302 166.213 233.969 164.997 231.167 166.304C228.364 167.611 227.154 170.946 228.462 173.752C229.771 176.559 233.104 177.776 235.906 176.469Z" fill="#61DAFB" stroke="white" stroke-width="2"/>
<path d="M246.872 154.947L246.862 154.948L246.852 154.949C246.171 155.008 245.465 155.077 244.741 155.166C244.585 154.458 244.414 153.765 244.233 153.098L244.231 153.09L244.229 153.082C243.412 150.227 242.312 147.884 240.944 146.199C239.568 144.505 237.871 143.426 235.907 143.273C234.74 143.17 233.633 143.408 232.549 143.914C230.942 144.663 229.492 146.06 228.217 147.848C227.104 149.408 226.09 151.317 225.196 153.478C222.966 152.773 220.852 152.324 218.942 152.173C216.753 152 214.75 152.213 213.143 152.963C212.057 153.469 211.162 154.166 210.49 155.129C209.359 156.749 209.098 158.747 209.512 160.892C209.922 163.023 211.006 165.362 212.66 167.805L212.664 167.811L212.668 167.817C213.061 168.382 213.481 168.956 213.921 169.528C213.39 170.01 212.87 170.507 212.38 171.036C210.323 173.171 208.856 175.285 208.091 177.307C207.318 179.348 207.244 181.352 208.078 183.142C208.915 184.937 210.512 186.162 212.573 186.878C214.62 187.589 217.184 187.824 220.127 187.628L220.139 187.627L220.15 187.626C220.831 187.567 221.537 187.499 222.261 187.409C222.417 188.117 222.588 188.811 222.769 189.478L222.771 189.485L222.773 189.493C223.59 192.348 224.69 194.692 226.058 196.377C227.434 198.07 229.131 199.149 231.095 199.303C232.262 199.406 233.369 199.168 234.453 198.662C236.077 197.905 237.538 196.504 238.815 194.713C239.926 193.154 240.933 191.251 241.811 189.099C244.039 189.803 246.151 190.252 248.06 190.402C250.249 190.575 252.252 190.362 253.859 189.613C254.945 189.106 255.84 188.41 256.512 187.447C257.643 185.827 257.904 183.829 257.49 181.684C257.08 179.553 255.996 177.214 254.342 174.771L254.338 174.765L254.334 174.759C253.941 174.194 253.521 173.62 253.081 173.047C253.612 172.565 254.132 172.069 254.622 171.539C256.679 169.405 258.146 167.291 258.911 165.268C259.684 163.228 259.758 161.223 258.924 159.433C258.089 157.643 256.505 156.412 254.446 155.692C252.401 154.977 249.835 154.742 246.872 154.947ZM235.516 147.997L235.522 147.998L235.529 147.999C236.077 148.05 236.799 148.456 237.593 149.564C238.374 150.654 239.113 152.279 239.716 154.408L239.719 154.419L239.722 154.429C239.877 154.94 240.013 155.485 240.136 156.064C238.343 156.494 236.528 157.048 234.684 157.706C232.957 156.739 231.264 155.9 229.614 155.163C230.273 153.532 230.996 152.096 231.771 150.935C232.71 149.527 233.665 148.612 234.587 148.182C234.937 148.019 235.253 147.97 235.516 147.997ZM229.28 177.393L229.276 177.389L229.271 177.386C228.107 176.568 226.96 175.706 225.88 174.842C225.912 173.459 225.989 172.026 226.11 170.608L226.111 170.603L226.111 170.597C226.214 169.238 226.407 167.828 226.641 166.38C227.846 165.713 229.086 165.098 230.381 164.494C231.706 163.876 232.973 163.322 234.226 162.841C235.467 163.589 236.645 164.363 237.761 165.165L237.766 165.168L237.77 165.171C238.93 165.987 240.074 166.845 241.15 167.707C241.095 169.112 241.035 170.509 240.93 171.962C240.827 173.32 240.634 174.73 240.4 176.178C239.195 176.844 237.955 177.46 236.66 178.063C235.335 178.681 234.068 179.236 232.815 179.716C231.574 178.969 230.396 178.194 229.28 177.393ZM214.357 157.871L214.361 157.866L214.364 157.861C214.512 157.641 214.753 157.431 215.103 157.267C216.007 156.846 217.309 156.698 218.989 156.879C220.375 157.028 221.947 157.394 223.638 157.942C223.135 159.673 222.701 161.529 222.336 163.464C220.642 164.462 219.067 165.517 217.592 166.59C217.288 166.189 217 165.788 216.71 165.385C216.662 165.319 216.615 165.253 216.567 165.186C215.329 163.361 214.562 161.754 214.229 160.459C213.891 159.139 214.044 158.324 214.357 157.871ZM215.777 174.362L215.787 174.352L215.797 174.341C216.167 173.947 216.575 173.55 217.005 173.158C218.265 174.476 219.648 175.809 221.129 177.103C221.163 179.043 221.26 180.941 221.469 182.747C218.979 183.054 216.891 183.029 215.312 182.738C213.443 182.393 212.588 181.741 212.319 181.165C212.092 180.679 212.075 179.851 212.635 178.607C213.185 177.387 214.223 175.934 215.777 174.362ZM231.486 194.578L231.48 194.577L231.473 194.577C230.925 194.525 230.203 194.12 229.409 193.011C228.628 191.922 227.889 190.296 227.286 188.167L227.283 188.157L227.28 188.147C227.125 187.636 226.99 187.09 226.866 186.511C228.659 186.081 230.474 185.527 232.318 184.87C234.045 185.837 235.738 186.675 237.388 187.413C236.729 189.043 236.006 190.479 235.232 191.641C234.292 193.049 233.337 193.963 232.415 194.393C232.065 194.557 231.749 194.606 231.486 194.578ZM252.645 184.704L252.641 184.71L252.638 184.715C252.49 184.934 252.249 185.145 251.899 185.308C250.995 185.73 249.693 185.878 248.013 185.697C246.627 185.547 245.055 185.181 243.364 184.633C243.867 182.903 244.301 181.047 244.666 179.111C246.36 178.114 247.935 177.059 249.411 175.985C249.714 176.386 250.002 176.787 250.292 177.19C250.34 177.257 250.387 177.323 250.435 177.389C251.673 179.215 252.441 180.821 252.773 182.117C253.111 183.437 252.958 184.251 252.645 184.704ZM251.223 168.216L251.214 168.225L251.205 168.235C250.835 168.629 250.427 169.026 249.997 169.417C248.737 168.1 247.354 166.767 245.873 165.472C245.839 163.532 245.742 161.634 245.533 159.828C248.024 159.521 250.111 159.547 251.69 159.838C253.559 160.182 254.414 160.834 254.683 161.41C254.907 161.892 254.921 162.72 254.353 163.973C253.797 165.198 252.758 166.652 251.223 168.216ZM245.68 171.75C245.908 171.979 246.133 172.209 246.356 172.44C246.107 172.623 245.853 172.804 245.594 172.985C245.61 172.779 245.624 172.571 245.633 172.363C245.65 172.159 245.665 171.955 245.68 171.75ZM238.932 182.934C238.674 182.818 238.417 182.7 238.159 182.579C238.326 182.504 238.493 182.427 238.659 182.35C238.826 182.272 238.991 182.193 239.156 182.114C239.084 182.389 239.009 182.662 238.932 182.934ZM226.507 181.207C226.688 181.341 226.867 181.469 227.044 181.594C226.729 181.679 226.418 181.76 226.109 181.835C226.075 181.515 226.043 181.191 226.014 180.866C226.178 180.981 226.342 181.096 226.507 181.207ZM221.369 170.212C221.352 170.416 221.337 170.621 221.322 170.825C221.094 170.596 220.869 170.366 220.646 170.135C220.895 169.953 221.149 169.771 221.408 169.591C221.392 169.797 221.378 170.005 221.369 170.212ZM227.846 160.462C227.918 160.187 227.993 159.913 228.07 159.642C228.328 159.757 228.586 159.876 228.843 159.997C228.676 160.072 228.509 160.148 228.343 160.226C228.176 160.303 228.011 160.382 227.846 160.462ZM240.457 161.316L239.961 160.98C240.275 160.896 240.585 160.816 240.893 160.74C240.926 161.052 240.957 161.366 240.986 161.682C240.811 161.558 240.634 161.436 240.457 161.316Z" fill="#61DAFB" stroke="white" stroke-width="1.5"/>
</g>
<g clip-path="url(#clip1_105_64)">
<path d="M346.261 162.256L346.261 162.256C348.305 162.402 349.987 163.576 352.129 165.106L352.161 165.13C353.851 166.337 355.777 167.714 358.222 168.606C360.706 169.512 363.685 169.907 367.494 169.235C373.625 168.154 377.769 165.029 379.711 159.819C379.912 159.282 379.87 158.736 379.614 158.273C379.373 157.835 378.981 157.541 378.586 157.368C377.818 157.031 376.753 157.032 375.944 157.661C374.41 158.854 372.619 159.384 370.519 159.234L370.455 160.145L370.519 159.234C368.476 159.087 366.793 157.914 364.651 156.384L364.619 156.36C362.929 155.153 361.003 153.776 358.558 152.884C356.074 151.978 353.096 151.583 349.287 152.255C343.155 153.336 339.011 156.461 337.069 161.671C336.869 162.208 336.911 162.754 337.166 163.217C337.408 163.655 337.799 163.949 338.195 164.122C338.962 164.459 340.027 164.458 340.836 163.829C342.37 162.636 344.161 162.106 346.261 162.256ZM334.642 182.639C336.686 182.785 338.368 183.959 340.51 185.489C340.51 185.489 340.51 185.489 340.51 185.489L340.542 185.513C342.232 186.72 344.158 188.097 346.603 188.989C349.087 189.895 352.066 190.29 355.875 189.618C362.006 188.537 366.15 185.412 368.092 180.202C368.293 179.664 368.251 179.119 367.995 178.656C367.754 178.218 367.362 177.924 366.967 177.751C366.199 177.414 365.134 177.415 364.325 178.044C362.791 179.237 361 179.767 358.9 179.617L358.9 179.617C356.857 179.47 355.174 178.297 353.033 176.767C353.033 176.767 353.033 176.767 353.033 176.767L353 176.743C351.31 175.536 349.384 174.159 346.939 173.267C344.455 172.361 341.477 171.966 337.668 172.638C331.536 173.719 327.392 176.844 325.45 182.054C325.25 182.591 325.292 183.137 325.547 183.6C325.789 184.038 326.18 184.332 326.576 184.505C327.343 184.842 328.408 184.841 329.217 184.212C330.751 183.019 332.542 182.489 334.642 182.639Z" fill="url(#paint0_linear_105_64)" stroke="white" stroke-width="2"/>
</g>
<g clip-path="url(#clip2_105_64)">
<path d="M607.71 138.498L563.788 146.243C560.241 146.868 557.873 150.25 558.498 153.797L566.243 197.72C566.868 201.266 570.25 203.635 573.797 203.009L617.72 195.265C621.266 194.639 623.635 191.257 623.009 187.71L615.265 143.788C614.639 140.241 611.257 137.873 607.71 138.498Z" fill="#3178C6" stroke="white" stroke-width="2"/>
<path fill-rule="evenodd" clip-rule="evenodd" d="M600.097 185.751L601.038 191.088C601.984 191.38 603.069 191.532 604.292 191.546C605.516 191.559 606.784 191.45 608.097 191.219C609.376 190.993 610.57 190.657 611.678 190.209C612.786 189.762 613.724 189.181 614.493 188.466C615.261 187.752 615.819 186.897 616.165 185.901C616.512 184.906 616.567 183.741 616.332 182.407C616.161 181.44 615.867 180.617 615.45 179.94C615.032 179.263 614.501 178.689 613.856 178.218C613.211 177.747 612.467 177.353 611.626 177.037C610.785 176.721 609.851 176.448 608.823 176.216C608.072 176.051 607.394 175.881 606.79 175.706C606.185 175.532 605.664 175.337 605.224 175.123C604.785 174.908 604.432 174.66 604.165 174.381C603.897 174.101 603.728 173.761 603.658 173.361C603.593 172.994 603.629 172.647 603.767 172.319C603.904 171.991 604.126 171.691 604.434 171.419C604.741 171.147 605.135 170.908 605.615 170.703C606.095 170.498 606.641 170.342 607.252 170.234C607.697 170.155 608.173 170.106 608.68 170.085C609.187 170.065 609.702 170.08 610.228 170.13C610.753 170.181 611.27 170.271 611.78 170.398C612.29 170.526 612.77 170.694 613.219 170.901L612.34 165.915C611.473 165.746 610.545 165.672 609.557 165.692C608.568 165.711 607.451 165.831 606.205 166.051C604.937 166.274 603.76 166.622 602.673 167.095C601.587 167.567 600.664 168.168 599.903 168.898C599.143 169.629 598.592 170.485 598.249 171.469C597.907 172.452 597.845 173.566 598.065 174.812C598.345 176.401 599.043 177.677 600.159 178.638C601.274 179.599 602.835 180.304 604.841 180.753C605.628 180.924 606.364 181.098 607.049 181.275C607.734 181.452 608.335 181.656 608.851 181.886C609.368 182.116 609.792 182.391 610.123 182.711C610.455 183.03 610.662 183.424 610.744 183.891C610.805 184.236 610.778 184.57 610.663 184.894C610.548 185.218 610.34 185.518 610.039 185.795C609.738 186.072 609.345 186.316 608.861 186.527C608.376 186.739 607.795 186.904 607.116 187.024C605.96 187.228 604.778 187.227 603.572 187.021C602.366 186.816 601.207 186.392 600.097 185.751ZM588.806 174.184L595.652 172.977L594.88 168.597L575.797 171.962L576.57 176.342L583.383 175.14L586.821 194.641L592.245 193.684L588.806 174.184Z" fill="white"/>
</g>
<g clip-path="url(#clip3_105_64)">
<path fill-rule="evenodd" clip-rule="evenodd" d="M471.796 143.58C471.327 143.662 471.349 144.276 471.692 144.606C471.944 144.849 472.145 145.13 472.306 145.44C472.352 145.528 472.377 145.626 472.423 145.714C472.444 145.754 472.468 145.795 472.488 145.846L472.552 146.083C472.838 147.317 472.471 147.539 472.34 148.329C472.091 149.338 472.379 150.342 473.019 151.062C473.024 151.067 473.028 151.072 473.031 151.078C473.09 151.172 473.181 151.116 473.152 151.009C472.337 148.061 474.563 146.946 475.201 145.871C475.304 145.697 475.323 145.487 475.26 145.295C475.004 144.515 474.2 144.074 473.563 143.764C473.003 143.535 472.39 143.472 471.796 143.58ZM476.887 143.671C476.662 143.633 476.506 143.804 476.517 144.032L476.533 144.309C476.537 144.377 476.536 144.445 476.53 144.512L476.509 144.754L476.479 144.991C476.467 145.079 476.448 145.165 476.42 145.25L476.345 145.482L476.262 145.654L476.198 145.801C476.178 145.852 476.159 145.904 476.136 145.952C476.081 146.074 476.005 146.187 475.94 146.305C475.916 146.349 475.889 146.39 475.857 146.424L475.612 146.693C475.348 146.987 475.029 147.223 474.784 147.492C474.604 147.648 474.429 147.834 474.293 148.029L474.098 148.334L473.93 148.657L473.834 148.866C473.8 148.939 473.773 149.014 473.752 149.091L473.688 149.33L473.637 149.677C473.622 149.764 473.61 149.851 473.6 149.939C473.592 150.01 473.591 150.082 473.596 150.154L473.602 150.247L473.607 150.404L473.651 150.779L473.67 150.89C473.686 150.976 473.709 151.061 473.74 151.143L473.774 151.234C473.805 151.316 473.825 151.402 473.852 151.485C473.874 151.554 473.905 151.617 473.948 151.696L474.115 152.004C474.162 152.081 474.095 152.178 474.006 152.16L470.783 151.51L469.067 151.362L468.154 151.298C467.272 151.281 466.389 151.309 465.51 151.381L465.422 151.396C463.055 151.556 460.722 152.043 458.489 152.844L457.857 153.091C457.431 153.233 457.035 153.416 456.657 153.573L456.134 153.816C456.066 153.847 456.001 153.884 455.94 153.926L455.489 154.229L455.046 154.533C455.005 154.555 454.966 154.581 454.93 154.61L454.677 154.815C454.646 154.841 454.611 154.861 454.573 154.876C454.541 154.889 454.51 154.905 454.483 154.926L454.126 155.191L453.891 155.39L453.771 155.479L453.438 155.763L453.127 156.043L452.9 156.267C452.885 156.282 452.871 156.298 452.86 156.315L452.614 156.584L452.426 156.797L452.35 156.878L452.219 157.028C452.183 157.068 452.161 157.121 452.131 157.165L451.92 157.414C451.912 157.424 451.908 157.437 451.91 157.449C451.913 157.464 451.907 157.479 451.896 157.49C451.816 157.564 451.754 157.649 451.708 157.734C451.699 157.751 451.687 157.766 451.671 157.778C451.66 157.785 451.651 157.795 451.643 157.806L451.537 157.957C451.497 158.015 451.466 158.082 451.424 158.138C451.41 158.157 451.4 158.182 451.387 158.202L451.259 158.406C451.24 158.435 451.218 158.463 451.194 158.489C451.168 158.517 451.145 158.548 451.125 158.581L450.91 158.935L450.874 158.986C450.507 159.564 450.071 160.095 449.576 160.567C448.857 161.269 448.045 161.867 447.163 162.345C446.592 162.558 446.022 162.906 445.506 163.043L445.164 163.148L444.829 163.297L444.503 163.49L444.202 163.701L443.931 163.951C443.905 163.973 443.88 163.997 443.856 164.021C443.727 164.152 443.61 164.3 443.51 164.453C443.487 164.488 443.467 164.523 443.451 164.554L443.261 164.881L443.096 165.225L442.995 165.488C442.97 165.554 442.95 165.622 442.934 165.691L442.87 165.986L442.821 166.281C442.81 166.347 442.803 166.414 442.802 166.481L442.797 166.701C442.797 166.714 442.798 166.726 442.8 166.738C442.803 166.755 442.803 166.772 442.802 166.789L442.783 166.984C442.771 167.112 442.776 167.24 442.798 167.367L442.845 167.635C442.896 167.815 442.979 167.983 443.091 168.133L443.29 168.368L443.414 168.498C443.479 168.566 443.549 168.627 443.627 168.678C443.753 168.759 443.883 168.833 444.018 168.899C444.08 168.93 444.142 168.963 444.2 169.002C444.514 169.208 444.64 169.298 445.077 169.428L445.306 169.496C445.312 169.498 445.317 169.498 445.323 169.497C445.342 169.493 445.361 169.506 445.364 169.526L445.372 169.57C445.373 169.576 445.374 169.58 445.376 169.585C445.462 169.809 445.575 170.021 445.711 170.217L445.867 170.46C445.889 170.501 445.915 170.54 445.945 170.576C446.089 170.746 446.241 170.91 446.402 171.064L446.611 171.241C446.648 171.272 446.687 171.3 446.729 171.325L446.984 171.473C446.99 171.476 446.997 171.478 447.004 171.476C447.011 171.475 447.018 171.476 447.024 171.48C447.416 171.719 447.855 171.87 448.311 171.922L448.38 171.932C448.486 171.94 448.571 172.021 448.584 172.127C448.671 172.829 448.773 173.462 448.936 173.682C449.235 174.149 450.184 173.527 450.341 174.058C450.375 174.171 450.41 174.259 450.445 174.317C450.631 174.596 451.148 173.707 451.625 172.587C451.773 172.241 452.04 171.954 452.391 171.815C454.419 171.012 456.588 170.617 458.773 170.654C461.155 170.694 463.5 171.247 465.648 172.275C467.797 173.304 469.699 174.783 471.224 176.612C472.75 178.442 473.863 180.578 474.488 182.877C474.144 181.717 472.854 181.156 471.899 181.124C471.439 181.108 471.125 181.498 470.999 181.941C470.797 182.657 470.501 183.439 470.045 184.13C469.841 184.439 469.398 184.3 469.334 183.935C469.253 183.479 468.603 183.531 468.476 183.976C468.317 184.536 468.105 185.08 467.846 185.603C467.744 185.81 467.553 185.961 467.325 185.996C466.796 186.077 466.255 186.051 465.734 185.918C465.096 185.755 464.508 185.437 464.023 184.993L463.985 184.951C463.917 184.875 463.857 184.792 463.807 184.704L463.719 184.55L463.679 184.471C463.615 184.346 463.569 184.211 463.545 184.072L463.489 183.757C463.488 183.752 463.488 183.746 463.487 183.741C463.456 183.543 463.481 183.332 463.538 183.14L463.612 182.935C463.643 182.848 463.667 182.757 463.677 182.664C463.747 182.034 463.629 181.525 463.171 181.312L463.065 181.268C462.958 181.224 462.846 181.193 462.731 181.176L462.695 181.171C462.617 181.154 462.538 181.145 462.459 181.142L462.261 181.134C462.164 181.124 462.066 181.126 461.969 181.141L461.659 181.173L461.54 181.194C461.474 181.206 461.409 181.222 461.345 181.243L461.142 181.309L460.848 181.429L460.579 181.566L460.318 181.747L460.061 181.951C457.754 184.114 459.087 187.517 460.981 189.358C461.465 189.829 461.359 190.795 460.789 191.156C460.731 191.192 460.685 191.227 460.652 191.26C460.647 191.264 460.644 191.27 460.642 191.277C460.636 191.298 460.647 191.32 460.667 191.328C462.09 191.864 463.592 192.156 465.112 192.192C466.955 192.225 468.786 191.884 470.494 191.191C472.202 190.497 473.752 189.464 475.05 188.155C476.348 186.846 477.367 185.287 478.046 183.573C478.678 181.98 479.003 180.282 479.006 178.57C479.006 178.488 479.122 178.464 479.154 178.539C479.244 178.793 479.356 179.044 479.428 179.324L479.537 179.688L479.548 179.754L479.654 180.096L479.76 180.573L479.969 181.753L479.978 181.931L480.014 182.138C480.028 182.216 479.997 182.299 480.011 182.376C480.025 182.454 480.036 182.517 480.037 182.579C480.039 182.667 480.033 182.756 480.048 182.843C480.075 182.993 480.051 183.108 480.056 183.261C480.056 183.267 480.056 183.273 480.057 183.278C480.059 183.287 480.059 183.296 480.059 183.305L480.044 183.656C480.042 183.685 480.044 183.715 480.049 183.744C480.071 183.868 480.054 183.998 480.035 184.129C480.032 184.145 480.033 184.161 480.035 184.176C480.038 184.19 480.038 184.203 480.037 184.217L480.001 184.587C480 184.602 480 184.616 480.003 184.631C480.005 184.646 480.006 184.66 480.005 184.675L479.968 185.055C479.967 185.062 479.967 185.069 479.969 185.076C479.97 185.084 479.97 185.091 479.969 185.099L479.917 185.548L479.833 185.968L479.731 186.414L479.691 186.638C479.665 186.783 479.615 186.922 479.576 187.064C479.56 187.121 479.544 187.18 479.522 187.238C479.51 187.272 479.501 187.306 479.499 187.341L479.497 187.368C479.496 187.375 479.496 187.375 479.496 187.383C479.499 187.418 479.454 187.453 479.443 187.487C478.839 189.497 477.777 191.34 476.341 192.871L476.096 193.11C476.057 193.149 476.028 193.201 475.987 193.239C475.966 193.257 475.951 193.286 475.932 193.305L475.728 193.513C475.709 193.533 475.709 193.563 475.727 193.583C475.741 193.597 475.761 193.602 475.779 193.596L476.314 193.418C476.32 193.415 476.327 193.414 476.334 193.412C476.342 193.411 476.349 193.409 476.357 193.407C476.815 193.248 477.27 193.078 477.72 192.898L477.909 192.819L478.181 192.704L478.432 192.592C479.572 192.104 480.735 193.248 479.985 194.235C479.932 194.305 479.879 194.375 479.825 194.444C478.941 195.581 479.969 197.306 481.199 196.557C482.446 195.797 483.623 194.917 484.711 193.926C486.211 192.56 487.517 191.006 488.599 189.307C489.139 188.46 490.519 188.827 490.286 189.804C490.056 190.762 491.235 191.484 491.794 190.672C492.671 189.398 493.417 188.033 494.019 186.599C494.703 184.967 495.191 183.265 495.476 181.528C495.613 180.693 496.791 180.53 496.963 181.36C497.121 182.123 498.195 182.282 498.458 181.548C503.771 166.747 492.879 154.879 488.512 151.856C488.51 151.855 488.509 151.854 488.508 151.852L488.484 151.807C488.483 151.804 488.479 151.805 488.479 151.808C488.48 151.811 488.477 151.812 488.475 151.811L488.467 151.805C488.462 151.802 488.455 151.805 488.456 151.811L488.499 152.307C488.519 152.627 488.53 152.949 488.534 153.27L488.459 154.252C488.358 154.891 488.206 155.521 488.003 156.135C487.619 157.229 487.043 158.247 486.302 159.139L486.028 159.503C485.604 159.997 485.122 160.438 484.592 160.815L483.787 161.363C483.219 161.698 482.619 161.978 481.996 162.197L481.058 162.497C480.195 162.697 479.311 162.792 478.426 162.781C478.237 162.767 478.204 162.473 478.382 162.407C479.599 161.955 480.726 161.283 481.706 160.423L482.392 159.716L483.002 158.955L483.534 158.14C483.68 157.908 483.809 157.664 483.922 157.419C483.967 157.322 484.023 157.227 484.053 157.124L484.349 156.374C484.563 155.762 484.716 155.132 484.806 154.49C484.839 154.169 484.869 153.826 484.859 153.512C484.866 153.173 484.878 152.855 484.846 152.545L484.742 151.572L484.601 150.899L484.304 149.982C484.202 149.662 484.079 149.346 483.916 149.059C483.778 148.79 483.637 148.5 483.452 148.217C483.289 147.93 483.107 147.669 482.904 147.412L482.277 146.667C481.815 146.205 481.325 145.772 480.809 145.37C479.947 144.74 478.978 144.269 477.951 143.98C477.887 143.962 477.825 143.939 477.765 143.914C477.471 143.792 477.178 143.72 476.887 143.671Z" fill="white"/>
<mask id="mask1_105_64" style="mask-type:luminance" maskUnits="userSpaceOnUse" x="436" y="136" width="71" height="69">
<path d="M496.111 136.953L436.935 147.387L447.092 204.992L506.268 194.557L496.111 136.953Z" fill="white"/>
<path fill-rule="evenodd" clip-rule="evenodd" d="M471.796 143.58C471.327 143.662 471.349 144.276 471.692 144.606C471.944 144.849 472.145 145.13 472.306 145.44C472.352 145.528 472.377 145.626 472.423 145.714C472.444 145.754 472.468 145.795 472.488 145.846L472.552 146.083C472.838 147.317 472.471 147.539 472.34 148.329C472.091 149.338 472.379 150.342 473.019 151.062C473.024 151.067 473.028 151.072 473.031 151.078C473.09 151.172 473.181 151.116 473.152 151.009C472.337 148.061 474.563 146.946 475.201 145.871C475.304 145.697 475.323 145.487 475.26 145.295C475.004 144.515 474.2 144.074 473.563 143.764C473.003 143.535 472.39 143.472 471.796 143.58ZM476.887 143.671C476.662 143.633 476.506 143.804 476.517 144.032L476.533 144.309C476.537 144.377 476.536 144.445 476.53 144.512L476.509 144.754L476.479 144.991C476.467 145.079 476.448 145.165 476.42 145.25L476.345 145.482L476.262 145.654L476.198 145.801C476.178 145.852 476.159 145.904 476.136 145.952C476.081 146.074 476.005 146.187 475.94 146.305C475.916 146.349 475.889 146.39 475.857 146.424L475.612 146.693C475.348 146.987 475.029 147.223 474.784 147.492C474.604 147.648 474.429 147.834 474.293 148.029L474.098 148.334L473.93 148.657L473.834 148.866C473.8 148.939 473.773 149.014 473.752 149.091L473.688 149.33L473.637 149.677C473.622 149.764 473.61 149.851 473.6 149.939C473.592 150.01 473.591 150.082 473.596 150.154L473.602 150.247L473.607 150.404L473.651 150.779L473.67 150.89C473.686 150.976 473.709 151.061 473.74 151.143L473.774 151.234C473.805 151.316 473.825 151.402 473.852 151.485C473.874 151.554 473.905 151.617 473.948 151.696L474.115 152.004C474.162 152.081 474.095 152.178 474.006 152.16L470.783 151.51L469.067 151.362L468.154 151.298C467.272 151.281 466.389 151.309 465.51 151.381L465.422 151.396C463.055 151.556 460.722 152.043 458.489 152.844L457.857 153.091C457.431 153.233 457.035 153.416 456.657 153.573L456.134 153.816C456.066 153.847 456.001 153.884 455.94 153.926L455.489 154.229L455.046 154.533C455.005 154.555 454.966 154.581 454.93 154.61L454.677 154.815C454.646 154.841 454.611 154.861 454.573 154.876C454.541 154.889 454.51 154.905 454.483 154.926L454.126 155.191L453.891 155.39L453.771 155.479L453.438 155.763L453.127 156.043L452.9 156.267C452.885 156.282 452.871 156.298 452.86 156.315L452.614 156.584L452.426 156.797L452.35 156.878L452.219 157.028C452.183 157.068 452.161 157.121 452.131 157.165L451.92 157.414C451.912 157.424 451.908 157.437 451.91 157.449C451.913 157.464 451.907 157.479 451.896 157.49C451.816 157.564 451.754 157.649 451.708 157.734C451.699 157.751 451.687 157.766 451.671 157.778C451.66 157.785 451.651 157.795 451.643 157.806L451.537 157.957C451.497 158.015 451.466 158.082 451.424 158.138C451.41 158.157 451.4 158.182 451.387 158.202L451.259 158.406C451.24 158.435 451.218 158.463 451.194 158.489C451.168 158.517 451.145 158.548 451.125 158.581L450.91 158.935L450.874 158.986C450.507 159.564 450.071 160.095 449.576 160.567C448.857 161.269 448.045 161.867 447.163 162.345C446.592 162.558 446.022 162.906 445.506 163.043L445.164 163.148L444.829 163.297L444.503 163.49L444.202 163.701L443.931 163.951C443.905 163.973 443.88 163.997 443.856 164.021C443.727 164.152 443.61 164.3 443.51 164.453C443.487 164.488 443.467 164.523 443.451 164.554L443.261 164.881L443.096 165.225L442.995 165.488C442.97 165.554 442.95 165.622 442.934 165.691L442.87 165.986L442.821 166.281C442.81 166.347 442.803 166.414 442.802 166.481L442.797 166.701C442.797 166.714 442.798 166.726 442.8 166.738C442.803 166.755 442.803 166.772 442.802 166.789L442.783 166.984C442.771 167.112 442.776 167.24 442.798 167.367L442.845 167.635C442.896 167.815 442.979 167.983 443.091 168.133L443.29 168.368L443.414 168.498C443.479 168.566 443.549 168.627 443.627 168.678C443.753 168.759 443.883 168.833 444.018 168.899C444.08 168.93 444.142 168.963 444.2 169.002C444.514 169.208 444.64 169.298 445.077 169.428L445.306 169.496C445.312 169.498 445.317 169.498 445.323 169.497C445.342 169.493 445.361 169.506 445.364 169.526L445.372 169.57C445.373 169.576 445.374 169.58 445.376 169.585C445.462 169.809 445.575 170.021 445.711 170.217L445.867 170.46C445.889 170.501 445.915 170.54 445.945 170.576C446.089 170.746 446.241 170.91 446.402 171.064L446.611 171.241C446.648 171.272 446.687 171.3 446.729 171.325L446.984 171.473C446.99 171.476 446.997 171.478 447.004 171.476C447.011 171.475 447.018 171.476 447.024 171.48C447.416 171.719 447.855 171.87 448.311 171.922L448.38 171.932C448.486 171.94 448.571 172.021 448.584 172.127C448.671 172.829 448.773 173.462 448.936 173.682C449.235 174.149 450.184 173.527 450.341 174.058C450.375 174.171 450.41 174.259 450.445 174.317C450.631 174.596 451.148 173.707 451.625 172.587C451.773 172.241 452.04 171.954 452.391 171.815C454.419 171.012 456.588 170.617 458.773 170.654C461.155 170.694 463.5 171.247 465.648 172.275C467.797 173.304 469.699 174.783 471.224 176.612C472.75 178.442 473.863 180.578 474.488 182.877C474.144 181.717 472.854 181.156 471.899 181.124C471.439 181.108 471.125 181.498 471 181.941C470.797 182.657 470.501 183.439 470.045 184.13C469.841 184.439 469.398 184.3 469.334 183.935C469.253 183.479 468.603 183.531 468.476 183.976C468.317 184.536 468.105 185.08 467.846 185.603C467.744 185.81 467.553 185.961 467.325 185.996C466.796 186.077 466.255 186.051 465.734 185.918C465.096 185.755 464.508 185.437 464.023 184.993L463.985 184.951C463.917 184.875 463.857 184.792 463.807 184.704L463.719 184.55L463.679 184.471C463.615 184.346 463.569 184.211 463.545 184.072L463.489 183.757C463.488 183.752 463.488 183.746 463.487 183.741C463.456 183.543 463.481 183.332 463.538 183.14L463.612 182.935C463.643 182.848 463.667 182.757 463.677 182.664C463.747 182.034 463.629 181.525 463.171 181.312L463.065 181.268C462.958 181.224 462.846 181.193 462.731 181.176L462.695 181.171C462.617 181.154 462.538 181.145 462.459 181.142L462.261 181.134C462.164 181.124 462.066 181.126 461.969 181.141L461.659 181.173L461.54 181.194C461.474 181.206 461.409 181.222 461.345 181.243L461.142 181.309L460.848 181.429L460.579 181.566L460.318 181.747L460.061 181.951C457.754 184.114 459.087 187.517 460.981 189.358C461.465 189.829 461.359 190.795 460.789 191.156C460.731 191.192 460.685 191.227 460.652 191.26C460.647 191.264 460.644 191.27 460.642 191.277C460.636 191.298 460.647 191.32 460.667 191.328C462.09 191.864 463.592 192.156 465.112 192.192C466.955 192.225 468.786 191.884 470.494 191.191C472.202 190.497 473.752 189.464 475.05 188.155C476.348 186.846 477.367 185.287 478.046 183.573C478.678 181.98 479.003 180.282 479.006 178.57C479.006 178.488 479.122 178.464 479.154 178.539C479.244 178.793 479.356 179.044 479.428 179.324L479.537 179.688L479.548 179.754L479.654 180.096L479.761 180.573L479.969 181.753L479.978 181.931L480.014 182.138C480.028 182.216 479.997 182.299 480.011 182.376C480.025 182.454 480.036 182.517 480.037 182.579C480.039 182.667 480.033 182.756 480.048 182.843C480.075 182.993 480.052 183.108 480.056 183.261C480.056 183.267 480.056 183.273 480.057 183.278C480.059 183.287 480.059 183.296 480.059 183.305L480.044 183.656C480.042 183.685 480.044 183.715 480.049 183.744C480.071 183.868 480.054 183.998 480.035 184.129C480.032 184.145 480.033 184.161 480.035 184.176C480.038 184.19 480.038 184.203 480.037 184.217L480.001 184.587C480 184.602 480 184.616 480.003 184.631C480.005 184.646 480.006 184.66 480.005 184.675L479.968 185.055C479.967 185.062 479.967 185.069 479.969 185.076C479.97 185.084 479.97 185.091 479.969 185.099L479.917 185.548L479.833 185.968L479.731 186.414L479.691 186.638C479.665 186.783 479.615 186.922 479.576 187.064C479.56 187.121 479.544 187.18 479.522 187.238C479.51 187.272 479.501 187.306 479.499 187.341L479.497 187.368C479.496 187.375 479.496 187.375 479.496 187.383C479.499 187.418 479.454 187.453 479.443 187.487C478.839 189.497 477.777 191.34 476.341 192.871L476.096 193.11C476.057 193.149 476.028 193.201 475.987 193.239C475.966 193.257 475.951 193.286 475.932 193.305L475.728 193.513C475.709 193.533 475.709 193.563 475.727 193.583C475.741 193.597 475.761 193.602 475.779 193.596L476.314 193.418C476.32 193.415 476.327 193.414 476.334 193.412C476.342 193.411 476.349 193.409 476.357 193.407C476.815 193.248 477.27 193.078 477.72 192.898L477.909 192.819L478.181 192.704L478.432 192.592C479.572 192.104 480.735 193.248 479.985 194.235C479.932 194.305 479.879 194.375 479.825 194.444C478.941 195.581 479.969 197.306 481.199 196.557C482.446 195.797 483.623 194.917 484.711 193.926C486.211 192.56 487.517 191.006 488.599 189.307C489.139 188.46 490.519 188.827 490.286 189.804C490.056 190.762 491.235 191.484 491.794 190.672C492.671 189.398 493.417 188.033 494.019 186.599C494.703 184.967 495.191 183.265 495.476 181.528C495.613 180.693 496.791 180.53 496.963 181.36C497.121 182.123 498.195 182.282 498.458 181.548C503.771 166.747 492.879 154.879 488.512 151.856C488.51 151.855 488.509 151.854 488.509 151.852L488.484 151.807C488.483 151.804 488.479 151.805 488.479 151.808C488.48 151.811 488.477 151.812 488.475 151.811L488.467 151.805C488.462 151.802 488.455 151.805 488.456 151.811L488.499 152.307C488.519 152.627 488.53 152.949 488.534 153.27L488.459 154.252C488.358 154.891 488.206 155.521 488.003 156.135C487.619 157.229 487.043 158.247 486.302 159.139L486.028 159.503C485.604 159.997 485.122 160.438 484.592 160.815L483.787 161.363C483.219 161.698 482.619 161.978 481.996 162.197L481.058 162.497C480.195 162.697 479.311 162.792 478.426 162.781C478.237 162.767 478.204 162.473 478.382 162.407C479.599 161.955 480.726 161.283 481.706 160.423L482.392 159.716L483.002 158.955L483.534 158.14C483.68 157.908 483.809 157.664 483.922 157.419C483.967 157.322 484.023 157.227 484.053 157.124L484.349 156.374C484.563 155.762 484.716 155.132 484.806 154.49C484.839 154.169 484.869 153.826 484.859 153.512C484.866 153.173 484.878 152.855 484.846 152.545L484.742 151.572L484.601 150.899L484.304 149.982C484.202 149.662 484.079 149.346 483.916 149.059C483.778 148.79 483.637 148.5 483.452 148.217C483.289 147.93 483.107 147.669 482.904 147.412L482.277 146.667C481.815 146.205 481.325 145.772 480.809 145.37C479.947 144.74 478.978 144.269 477.951 143.98C477.887 143.962 477.825 143.939 477.765 143.914C477.471 143.792 477.178 143.72 476.887 143.671Z" fill="black"/>
</mask>
<g mask="url(#mask1_105_64)">
<path fill-rule="evenodd" clip-rule="evenodd" d="M471.796 143.58C471.327 143.662 471.349 144.276 471.692 144.606C471.944 144.849 472.145 145.13 472.306 145.44C472.352 145.528 472.377 145.626 472.423 145.714C472.444 145.754 472.468 145.795 472.488 145.846L472.552 146.083C472.838 147.317 472.471 147.539 472.34 148.329C472.091 149.338 472.379 150.342 473.019 151.062C473.024 151.067 473.028 151.072 473.031 151.078C473.09 151.172 473.181 151.116 473.152 151.009C472.337 148.061 474.563 146.946 475.201 145.871C475.304 145.697 475.323 145.487 475.26 145.295C475.004 144.515 474.2 144.074 473.563 143.764C473.003 143.535 472.39 143.472 471.796 143.58ZM476.887 143.671C476.662 143.633 476.506 143.804 476.517 144.032L476.533 144.309C476.537 144.377 476.536 144.445 476.53 144.512L476.509 144.754L476.479 144.991C476.467 145.079 476.448 145.165 476.42 145.25L476.345 145.482L476.262 145.654L476.198 145.801C476.178 145.852 476.159 145.904 476.136 145.952C476.081 146.074 476.005 146.187 475.94 146.305C475.916 146.349 475.889 146.39 475.857 146.424L475.612 146.693C475.348 146.987 475.029 147.223 474.784 147.492C474.604 147.648 474.429 147.834 474.293 148.029L474.098 148.334L473.93 148.657L473.834 148.866C473.8 148.939 473.773 149.014 473.752 149.091L473.688 149.33L473.637 149.677C473.622 149.764 473.61 149.851 473.6 149.939C473.592 150.01 473.591 150.082 473.596 150.154L473.602 150.247L473.607 150.404L473.651 150.779L473.67 150.89C473.686 150.976 473.709 151.061 473.74 151.143L473.774 151.234C473.805 151.316 473.825 151.402 473.852 151.485C473.874 151.554 473.905 151.617 473.948 151.696L474.115 152.004C474.162 152.081 474.095 152.178 474.006 152.16L470.783 151.51L469.067 151.362L468.154 151.298C467.272 151.281 466.389 151.309 465.51 151.381L465.422 151.396C463.055 151.556 460.722 152.043 458.489 152.844L457.857 153.091C457.431 153.233 457.035 153.416 456.657 153.573L456.134 153.816C456.066 153.847 456.001 153.884 455.94 153.926L455.489 154.229L455.046 154.533C455.005 154.555 454.966 154.581 454.93 154.61L454.677 154.815C454.646 154.841 454.611 154.861 454.573 154.876C454.541 154.889 454.51 154.905 454.483 154.926L454.126 155.191L453.891 155.39L453.771 155.479L453.438 155.763L453.127 156.043L452.9 156.267C452.885 156.282 452.871 156.298 452.86 156.315L452.614 156.584L452.426 156.797L452.35 156.878L452.219 157.028C452.183 157.068 452.161 157.121 452.131 157.165L451.92 157.414C451.912 157.424 451.908 157.437 451.91 157.449C451.913 157.464 451.907 157.479 451.896 157.49C451.816 157.564 451.754 157.649 451.708 157.734C451.699 157.751 451.687 157.766 451.671 157.778C451.66 157.785 451.651 157.795 451.643 157.806L451.537 157.957C451.497 158.015 451.466 158.082 451.424 158.138C451.41 158.157 451.4 158.182 451.387 158.202L451.259 158.406C451.24 158.435 451.218 158.463 451.194 158.489C451.168 158.517 451.145 158.548 451.125 158.581L450.91 158.935L450.874 158.986C450.507 159.564 450.071 160.095 449.576 160.567C448.857 161.269 448.045 161.867 447.163 162.345C446.592 162.558 446.022 162.906 445.506 163.043L445.164 163.148L444.829 163.297L444.503 163.49L444.202 163.701L443.931 163.951C443.905 163.973 443.88 163.997 443.856 164.021C443.727 164.152 443.61 164.3 443.51 164.453C443.487 164.488 443.467 164.523 443.451 164.554L443.261 164.881L443.096 165.225L442.995 165.488C442.97 165.554 442.95 165.622 442.934 165.691L442.87 165.986L442.821 166.281C442.81 166.347 442.803 166.414 442.802 166.481L442.797 166.701C442.797 166.714 442.798 166.726 442.8 166.738C442.803 166.755 442.803 166.772 442.802 166.789L442.783 166.984C442.771 167.112 442.776 167.24 442.798 167.367L442.845 167.635C442.896 167.815 442.979 167.983 443.091 168.133L443.29 168.368L443.414 168.498C443.479 168.566 443.549 168.627 443.627 168.678C443.753 168.759 443.883 168.833 444.018 168.899C444.08 168.93 444.142 168.963 444.2 169.002C444.514 169.208 444.64 169.298 445.077 169.428L445.306 169.496C445.312 169.498 445.317 169.498 445.323 169.497C445.342 169.493 445.361 169.506 445.364 169.526L445.372 169.57C445.373 169.576 445.374 169.58 445.376 169.585C445.462 169.809 445.575 170.021 445.711 170.217L445.867 170.46C445.889 170.501 445.915 170.54 445.945 170.576C446.089 170.746 446.241 170.91 446.402 171.064L446.611 171.241C446.648 171.272 446.687 171.3 446.729 171.325L446.984 171.473C446.99 171.476 446.997 171.478 447.004 171.476C447.011 171.475 447.018 171.476 447.024 171.48C447.416 171.719 447.855 171.87 448.311 171.922L448.38 171.932C448.486 171.94 448.571 172.021 448.584 172.127C448.671 172.829 448.773 173.462 448.936 173.682C449.235 174.149 450.184 173.527 450.341 174.058C450.375 174.171 450.41 174.259 450.445 174.317C450.631 174.596 451.148 173.707 451.625 172.587C451.773 172.241 452.04 171.954 452.391 171.815C454.419 171.012 456.588 170.617 458.773 170.654C461.155 170.694 463.5 171.247 465.648 172.275C467.797 173.304 469.699 174.783 471.224 176.612C472.75 178.442 473.863 180.578 474.488 182.877C474.144 181.717 472.854 181.156 471.899 181.124C471.439 181.108 471.125 181.498 471 181.941C470.797 182.657 470.501 183.439 470.045 184.13C469.841 184.439 469.398 184.3 469.334 183.935C469.253 183.479 468.603 183.531 468.476 183.976C468.317 184.536 468.105 185.08 467.846 185.603C467.744 185.81 467.553 185.961 467.325 185.996C466.796 186.077 466.255 186.051 465.734 185.918C465.096 185.755 464.508 185.437 464.023 184.993L463.985 184.951C463.917 184.875 463.857 184.792 463.807 184.704L463.719 184.55L463.679 184.471C463.615 184.346 463.569 184.211 463.545 184.072L463.489 183.757C463.488 183.752 463.488 183.746 463.487 183.741C463.456 183.543 463.481 183.332 463.538 183.14L463.612 182.935C463.643 182.848 463.667 182.757 463.677 182.664C463.747 182.034 463.629 181.525 463.171 181.312L463.065 181.268C462.958 181.224 462.846 181.193 462.731 181.176L462.695 181.171C462.617 181.154 462.538 181.145 462.459 181.142L462.261 181.134C462.164 181.124 462.066 181.126 461.969 181.141L461.659 181.173L461.54 181.194C461.474 181.206 461.409 181.222 461.345 181.243L461.142 181.309L460.848 181.429L460.579 181.566L460.318 181.747L460.061 181.951C457.754 184.114 459.087 187.517 460.981 189.358C461.465 189.829 461.359 190.795 460.789 191.156C460.731 191.192 460.685 191.227 460.652 191.26C460.647 191.264 460.644 191.27 460.642 191.277C460.636 191.298 460.647 191.32 460.667 191.328C462.09 191.864 463.592 192.156 465.112 192.192C466.955 192.225 468.786 191.884 470.494 191.191C472.202 190.497 473.752 189.464 475.05 188.155C476.348 186.846 477.367 185.287 478.046 183.573C478.678 181.98 479.003 180.282 479.006 178.57C479.006 178.488 479.122 178.464 479.154 178.539C479.244 178.793 479.356 179.044 479.428 179.324L479.537 179.688L479.548 179.754L479.654 180.096L479.761 180.573L479.969 181.753L479.978 181.931L480.014 182.138C480.028 182.216 479.997 182.299 480.011 182.376C480.025 182.454 480.036 182.517 480.037 182.579C480.039 182.667 480.033 182.756 480.048 182.843C480.075 182.993 480.052 183.108 480.056 183.261C480.056 183.267 480.056 183.273 480.057 183.278C480.059 183.287 480.059 183.296 480.059 183.305L480.044 183.656C480.042 183.685 480.044 183.715 480.049 183.744C480.071 183.868 480.054 183.998 480.035 184.129C480.032 184.145 480.033 184.161 480.035 184.176C480.038 184.19 480.038 184.203 480.037 184.217L480.001 184.587C480 184.602 480 184.616 480.003 184.631C480.005 184.646 480.006 184.66 480.005 184.675L479.968 185.055C479.967 185.062 479.967 185.069 479.969 185.076C479.97 185.084 479.97 185.091 479.969 185.099L479.917 185.548L479.833 185.968L479.731 186.414L479.691 186.638C479.665 186.783 479.615 186.922 479.576 187.064C479.56 187.121 479.544 187.18 479.522 187.238C479.51 187.272 479.501 187.306 479.499 187.341L479.497 187.368C479.496 187.375 479.496 187.375 479.496 187.383C479.499 187.418 479.454 187.453 479.443 187.487C478.839 189.497 477.777 191.34 476.341 192.871L476.096 193.11C476.057 193.149 476.028 193.201 475.987 193.239C475.966 193.257 475.951 193.286 475.932 193.305L475.728 193.513C475.709 193.533 475.709 193.563 475.727 193.583C475.741 193.597 475.761 193.602 475.779 193.596L476.314 193.418C476.32 193.415 476.327 193.414 476.334 193.412C476.342 193.411 476.349 193.409 476.357 193.407C476.815 193.248 477.27 193.078 477.72 192.898L477.909 192.819L478.181 192.704L478.432 192.592C479.572 192.104 480.735 193.248 479.985 194.235C479.932 194.305 479.879 194.375 479.825 194.444C478.941 195.581 479.969 197.306 481.199 196.557C482.446 195.797 483.623 194.917 484.711 193.926C486.211 192.56 487.517 191.006 488.599 189.307C489.139 188.46 490.519 188.827 490.286 189.804C490.056 190.762 491.235 191.484 491.794 190.672C492.671 189.398 493.417 188.033 494.019 186.599C494.703 184.967 495.191 183.265 495.476 181.528C495.613 180.693 496.791 180.53 496.963 181.36C497.121 182.123 498.195 182.282 498.458 181.548C503.771 166.747 492.879 154.879 488.512 151.856C488.51 151.855 488.509 151.854 488.509 151.852L488.484 151.807C488.483 151.804 488.479 151.805 488.479 151.808C488.48 151.811 488.477 151.812 488.475 151.811L488.467 151.805C488.462 151.802 488.455 151.805 488.456 151.811L488.499 152.307C488.519 152.627 488.53 152.949 488.534 153.27L488.459 154.252C488.358 154.891 488.206 155.521 488.003 156.135C487.619 157.229 487.043 158.247 486.302 159.139L486.028 159.503C485.604 159.997 485.122 160.438 484.592 160.815L483.787 161.363C483.219 161.698 482.619 161.978 481.996 162.197L481.058 162.497C480.195 162.697 479.311 162.792 478.426 162.781C478.237 162.767 478.204 162.473 478.382 162.407C479.599 161.955 480.726 161.283 481.706 160.423L482.392 159.716L483.002 158.955L483.534 158.14C483.68 157.908 483.809 157.664 483.922 157.419C483.967 157.322 484.023 157.227 484.053 157.124L484.349 156.374C484.563 155.762 484.716 155.132 484.806 154.49C484.839 154.169 484.869 153.826 484.859 153.512C484.866 153.173 484.878 152.855 484.846 152.545L484.742 151.572L484.601 150.899L484.304 149.982C484.202 149.662 484.079 149.346 483.916 149.059C483.778 148.79 483.637 148.5 483.452 148.217C483.289 147.93 483.107 147.669 482.904 147.412L482.277 146.667C481.815 146.205 481.325 145.772 480.809 145.37C479.947 144.74 478.978 144.269 477.951 143.98C477.887 143.962 477.825 143.939 477.765 143.914C477.471 143.792 477.178 143.72 476.887 143.671Z" stroke="white" stroke-width="3"/>
</g>
<path fill-rule="evenodd" clip-rule="evenodd" d="M471.796 143.58C471.327 143.662 471.349 144.276 471.692 144.606C471.944 144.849 472.145 145.13 472.306 145.44C472.352 145.528 472.377 145.626 472.423 145.714C472.444 145.754 472.468 145.795 472.488 145.846L472.552 146.083C472.838 147.317 472.471 147.539 472.34 148.329C472.091 149.338 472.379 150.342 473.019 151.062C473.024 151.067 473.028 151.072 473.031 151.078C473.09 151.172 473.181 151.116 473.152 151.009C472.337 148.061 474.563 146.946 475.201 145.871C475.304 145.697 475.323 145.487 475.26 145.295C475.004 144.515 474.2 144.074 473.563 143.764C473.003 143.535 472.39 143.472 471.796 143.58ZM476.887 143.671C476.662 143.633 476.506 143.804 476.517 144.032L476.533 144.309C476.537 144.377 476.536 144.445 476.53 144.512L476.509 144.754L476.479 144.991C476.467 145.079 476.448 145.165 476.42 145.25L476.345 145.482L476.262 145.654L476.198 145.801C476.178 145.852 476.159 145.904 476.136 145.952C476.081 146.074 476.005 146.187 475.94 146.305C475.916 146.349 475.889 146.39 475.857 146.424L475.612 146.693C475.348 146.987 475.029 147.223 474.784 147.492C474.604 147.648 474.429 147.834 474.293 148.029L474.098 148.334L473.93 148.657L473.834 148.866C473.8 148.939 473.773 149.014 473.752 149.091L473.688 149.33L473.637 149.677C473.622 149.764 473.61 149.851 473.6 149.939C473.592 150.01 473.591 150.082 473.596 150.154L473.602 150.247L473.607 150.404L473.651 150.779L473.67 150.89C473.686 150.976 473.709 151.061 473.74 151.143L473.774 151.234C473.805 151.316 473.825 151.402 473.852 151.485C473.874 151.554 473.905 151.617 473.948 151.696L474.115 152.004C474.162 152.081 474.095 152.178 474.006 152.16L470.783 151.51L469.067 151.362L468.154 151.298C467.272 151.281 466.389 151.309 465.51 151.381L465.422 151.396C463.055 151.556 460.722 152.043 458.489 152.844L457.857 153.091C457.431 153.233 457.035 153.416 456.657 153.573L456.134 153.816C456.066 153.847 456.001 153.884 455.94 153.926L455.489 154.229L455.046 154.533C455.005 154.555 454.966 154.581 454.93 154.61L454.677 154.815C454.646 154.841 454.611 154.861 454.573 154.876C454.541 154.889 454.51 154.905 454.483 154.926L454.126 155.191L453.891 155.39L453.771 155.479L453.438 155.763L453.127 156.043L452.9 156.267C452.885 156.282 452.871 156.298 452.86 156.315L452.614 156.584L452.426 156.797L452.35 156.878L452.219 157.028C452.183 157.068 452.161 157.121 452.131 157.165L451.92 157.414C451.912 157.424 451.908 157.437 451.91 157.449C451.913 157.464 451.907 157.479 451.896 157.49C451.816 157.564 451.754 157.649 451.708 157.734C451.699 157.751 451.687 157.766 451.671 157.778C451.66 157.785 451.651 157.795 451.643 157.806L451.537 157.957C451.497 158.015 451.466 158.082 451.424 158.138C451.41 158.157 451.4 158.182 451.387 158.202L451.259 158.406C451.24 158.435 451.218 158.463 451.194 158.489C451.168 158.517 451.145 158.548 451.125 158.581L450.91 158.935L450.874 158.986C450.507 159.564 450.071 160.095 449.576 160.567C448.857 161.269 448.045 161.867 447.163 162.345C446.592 162.558 446.022 162.906 445.506 163.043L445.164 163.148L444.829 163.297L444.503 163.49L444.202 163.701L443.931 163.951C443.905 163.973 443.88 163.997 443.856 164.021C443.727 164.152 443.61 164.3 443.51 164.453C443.487 164.488 443.467 164.523 443.451 164.554L443.261 164.881L443.096 165.225L442.995 165.488C442.97 165.554 442.95 165.622 442.934 165.691L442.87 165.986L442.821 166.281C442.81 166.347 442.803 166.414 442.802 166.481L442.797 166.701C442.797 166.714 442.798 166.726 442.8 166.738C442.803 166.755 442.803 166.772 442.802 166.789L442.783 166.984C442.771 167.112 442.776 167.24 442.798 167.367L442.845 167.635C442.896 167.815 442.979 167.983 443.091 168.133L443.29 168.368L443.414 168.498C443.479 168.566 443.549 168.627 443.627 168.678C443.753 168.759 443.883 168.833 444.018 168.899C444.08 168.93 444.142 168.963 444.2 169.002C444.514 169.208 444.64 169.298 445.077 169.428L445.306 169.496C445.312 169.498 445.317 169.498 445.323 169.497C445.342 169.493 445.361 169.506 445.364 169.526L445.372 169.57C445.373 169.576 445.374 169.58 445.376 169.585C445.462 169.809 445.575 170.021 445.711 170.217L445.867 170.46C445.889 170.501 445.915 170.54 445.945 170.576C446.089 170.746 446.241 170.91 446.402 171.064L446.611 171.241C446.648 171.272 446.687 171.3 446.729 171.325L446.984 171.473C446.99 171.476 446.997 171.478 447.004 171.476C447.011 171.475 447.018 171.476 447.024 171.48C447.416 171.719 447.855 171.87 448.311 171.922L448.38 171.932C448.486 171.94 448.571 172.021 448.584 172.127C448.671 172.829 448.773 173.462 448.936 173.682C449.235 174.149 450.184 173.527 450.341 174.058C450.375 174.171 450.41 174.259 450.445 174.317C450.631 174.596 451.148 173.707 451.625 172.587C451.773 172.241 452.04 171.954 452.391 171.815C454.419 171.012 456.588 170.617 458.773 170.654C461.155 170.694 463.5 171.247 465.648 172.275C467.797 173.304 469.699 174.783 471.224 176.612C472.75 178.442 473.863 180.578 474.488 182.877C474.144 181.717 472.854 181.156 471.899 181.124C471.439 181.108 471.125 181.498 470.999 181.941C470.797 182.657 470.501 183.439 470.045 184.13C469.841 184.439 469.398 184.3 469.334 183.935C469.253 183.479 468.603 183.531 468.476 183.976C468.317 184.536 468.105 185.08 467.846 185.603C467.744 185.81 467.553 185.961 467.325 185.996C466.796 186.077 466.255 186.051 465.734 185.918C465.096 185.755 464.508 185.437 464.023 184.993L463.985 184.951C463.917 184.875 463.857 184.792 463.807 184.704L463.719 184.55L463.679 184.471C463.615 184.346 463.569 184.211 463.545 184.072L463.489 183.757C463.488 183.752 463.488 183.746 463.487 183.741C463.456 183.543 463.481 183.332 463.538 183.14L463.612 182.935C463.643 182.848 463.667 182.757 463.677 182.664C463.747 182.034 463.629 181.525 463.171 181.312L463.065 181.268C462.958 181.224 462.846 181.193 462.731 181.176L462.695 181.171C462.617 181.154 462.538 181.145 462.459 181.142L462.261 181.134C462.164 181.124 462.066 181.126 461.969 181.141L461.659 181.173L461.54 181.194C461.474 181.206 461.409 181.222 461.345 181.243L461.142 181.309L460.848 181.429L460.579 181.566L460.318 181.747L460.061 181.951C457.754 184.114 459.087 187.517 460.981 189.358C461.465 189.829 461.359 190.795 460.789 191.156C460.731 191.192 460.685 191.227 460.652 191.26C460.647 191.264 460.644 191.27 460.642 191.277C460.636 191.298 460.647 191.32 460.667 191.328C462.09 191.864 463.592 192.156 465.112 192.192C466.955 192.225 468.786 191.884 470.494 191.191C472.202 190.497 473.752 189.464 475.05 188.155C476.348 186.846 477.367 185.287 478.046 183.573C478.678 181.98 479.003 180.282 479.006 178.57C479.006 178.488 479.122 178.464 479.154 178.539C479.244 178.793 479.356 179.044 479.428 179.324L479.537 179.688L479.548 179.754L479.654 180.096L479.76 180.573L479.969 181.753L479.978 181.931L480.014 182.138C480.028 182.216 479.997 182.299 480.011 182.376C480.025 182.454 480.036 182.517 480.037 182.579C480.039 182.667 480.033 182.756 480.048 182.843C480.075 182.993 480.051 183.108 480.056 183.261C480.056 183.267 480.056 183.273 480.057 183.278C480.059 183.287 480.059 183.296 480.059 183.305L480.044 183.656C480.042 183.685 480.044 183.715 480.049 183.744C480.071 183.868 480.054 183.998 480.035 184.129C480.032 184.145 480.033 184.161 480.035 184.176C480.038 184.19 480.038 184.203 480.037 184.217L480.001 184.587C480 184.602 480 184.616 480.003 184.631C480.005 184.646 480.006 184.66 480.005 184.675L479.968 185.055C479.967 185.062 479.967 185.069 479.969 185.076C479.97 185.084 479.97 185.091 479.969 185.099L479.917 185.548L479.833 185.968L479.731 186.414L479.691 186.638C479.665 186.783 479.615 186.922 479.576 187.064C479.56 187.121 479.544 187.18 479.522 187.238C479.51 187.272 479.501 187.306 479.499 187.341L479.497 187.368C479.496 187.375 479.496 187.375 479.496 187.383C479.499 187.418 479.454 187.453 479.443 187.487C478.839 189.497 477.777 191.34 476.341 192.871L476.096 193.11C476.057 193.149 476.028 193.201 475.987 193.239C475.966 193.257 475.951 193.286 475.932 193.305L475.728 193.513C475.709 193.533 475.709 193.563 475.727 193.583C475.741 193.597 475.761 193.602 475.779 193.596L476.314 193.418C476.32 193.415 476.327 193.414 476.334 193.412C476.342 193.411 476.349 193.409 476.357 193.407C476.815 193.248 477.27 193.078 477.72 192.898L477.909 192.819L478.181 192.704L478.432 192.592C479.572 192.104 480.735 193.248 479.985 194.235C479.932 194.305 479.879 194.375 479.825 194.444C478.941 195.581 479.969 197.306 481.199 196.557C482.446 195.797 483.623 194.917 484.711 193.926C486.211 192.56 487.517 191.006 488.599 189.307C489.139 188.46 490.519 188.827 490.286 189.804C490.056 190.762 491.235 191.484 491.794 190.672C492.671 189.398 493.417 188.033 494.019 186.599C494.703 184.967 495.191 183.265 495.476 181.528C495.613 180.693 496.791 180.53 496.963 181.36C497.121 182.123 498.195 182.282 498.458 181.548C503.771 166.747 492.879 154.879 488.512 151.856C488.51 151.855 488.509 151.854 488.508 151.852L488.484 151.807C488.483 151.804 488.479 151.805 488.479 151.808C488.48 151.811 488.477 151.812 488.475 151.811L488.467 151.805C488.462 151.802 488.455 151.805 488.456 151.811L488.499 152.307C488.519 152.627 488.53 152.949 488.534 153.27L488.459 154.252C488.358 154.891 488.206 155.521 488.003 156.135C487.619 157.229 487.043 158.247 486.302 159.139L486.028 159.503C485.604 159.997 485.122 160.438 484.592 160.815L483.787 161.363C483.219 161.698 482.619 161.978 481.996 162.197L481.058 162.497C480.195 162.697 479.311 162.792 478.426 162.781C478.237 162.767 478.204 162.473 478.382 162.407C479.599 161.955 480.726 161.283 481.706 160.423L482.392 159.716L483.002 158.955L483.534 158.14C483.68 157.908 483.809 157.664 483.922 157.419C483.967 157.322 484.023 157.227 484.053 157.124L484.349 156.374C484.563 155.762 484.716 155.132 484.806 154.49C484.839 154.169 484.869 153.826 484.859 153.512C484.866 153.173 484.878 152.855 484.846 152.545L484.742 151.572L484.601 150.899L484.304 149.982C484.202 149.662 484.079 149.346 483.916 149.059C483.778 148.79 483.637 148.5 483.452 148.217C483.289 147.93 483.107 147.669 482.904 147.412L482.277 146.667C481.815 146.205 481.325 145.772 480.809 145.37C479.947 144.74 478.978 144.269 477.951 143.98C477.887 143.962 477.825 143.939 477.765 143.914C477.471 143.792 477.178 143.72 476.887 143.671Z" fill="#E0234E"/>
</g>
</mask>
<g mask="url(#mask0_105_64)">
<ellipse cx="407" cy="175" rx="373" ry="116" fill="url(#paint1_radial_105_64)"/>
</g>
<defs>
<linearGradient id="paint0_linear_105_64" x1="356.648" y1="1325.27" x2="5981.74" y2="3357.16" gradientUnits="userSpaceOnUse">
<stop stop-color="#2298BD"/>
<stop offset="1" stop-color="#0ED7B5"/>
</linearGradient>
<radialGradient id="paint1_radial_105_64" cx="0" cy="0" r="1" gradientUnits="userSpaceOnUse" gradientTransform="translate(407 175) rotate(90) scale(116 373)">
<stop offset="0.375" stop-color="white"/>
<stop offset="1" stop-color="#999999" stop-opacity="0"/>
</radialGradient>
<clipPath id="clip0_105_64">
<rect width="72" height="67.8139" fill="white" transform="translate(186.714 155.567) rotate(-25)"/>
</clipPath>
<clipPath id="clip1_105_64">
<rect width="60" height="46.4348" fill="white" transform="translate(319 153.419) rotate(-10)"/>
</clipPath>
<clipPath id="clip2_105_64">
<rect width="60" height="60" fill="white" transform="translate(556 146.419) rotate(-10)"/>
</clipPath>
<clipPath id="clip3_105_64">
<rect width="60" height="58.4047" fill="white" transform="translate(437 147.419) rotate(-10)"/>
</clipPath>
</defs>
</svg>
