<svg width="461" height="104" viewBox="0 0 461 104" fill="none" xmlns="http://www.w3.org/2000/svg">
<rect x="1" y="1" width="102" height="102" rx="6" fill="#27222A" stroke="#858585" stroke-width="2"/>
<rect x="120" y="1" width="102" height="102" rx="6" fill="#27222A" stroke="#858585" stroke-width="2"/>
<rect x="239" y="1" width="102" height="102" rx="6" fill="#27222A" stroke="#858585" stroke-width="2"/>
<rect x="358" y="1.00012" width="102" height="102" rx="6" fill="#27222A" stroke="#858585" stroke-width="2"/>
<g clip-path="url(#clip0_105_61)">
<path d="M53.9065 57.4687C56.7088 56.162 57.9194 52.8272 56.6105 50.0203C55.3016 47.2133 51.9688 45.9971 49.1665 47.3039C46.3642 48.6106 45.1536 51.9454 46.4625 54.7524C47.7714 57.5593 51.1042 58.7755 53.9065 57.4687Z" fill="white" fill-opacity="0.5"/>
<path d="M64.8721 35.9473L64.862 35.948L64.8519 35.9489C64.1713 36.0083 63.4647 36.0766 62.7408 36.1662C62.5849 35.4581 62.4138 34.7647 62.2333 34.0978L62.2311 34.0899L62.2289 34.082C61.4117 31.2273 60.3122 28.8835 58.9436 27.1989C57.5679 25.5054 55.8713 24.426 53.9073 24.2727C52.7399 24.1696 51.6332 24.4078 50.5489 24.9135C48.9424 25.6626 47.4915 27.0603 46.2167 28.8482C45.1044 30.4082 44.0895 32.3166 43.1964 34.4784C40.9664 33.7729 38.8521 33.3237 36.9421 33.173C34.7531 33.0003 32.7497 33.2133 31.1433 33.9624C30.0567 34.4691 29.1616 35.1655 28.4896 36.129C27.3591 37.7485 27.0983 39.7471 27.5116 41.8915C27.9224 44.0225 29.0064 46.3617 30.6598 48.8044L30.664 48.8107L30.6683 48.8169C31.0614 49.3815 31.4808 49.9557 31.921 50.528C31.39 51.0098 30.8696 51.5068 30.3804 52.036C28.3231 54.1708 26.8563 56.2846 26.0908 58.3071C25.3184 60.3477 25.2437 62.3522 26.0785 64.1424C26.9152 65.9368 28.5124 67.1617 30.5731 67.8777C32.62 68.5889 35.1843 68.8239 38.1269 68.6282L38.1385 68.6273L38.1501 68.6264C38.8308 68.567 39.5374 68.4986 40.2612 68.409C40.4172 69.1172 40.5882 69.8105 40.7688 70.4774L40.7709 70.4854L40.7731 70.4932C41.5904 73.348 42.6899 75.6917 44.0585 77.3764C45.4343 79.0699 47.1309 80.1493 49.0949 80.3025C50.2623 80.4056 51.3689 80.1674 52.4532 79.6618C54.0771 78.9046 55.5378 77.5041 56.8146 75.7134C57.9262 74.1543 58.9329 72.2513 59.8108 70.0985C62.039 70.803 64.1515 71.2516 66.0599 71.4022C68.249 71.5749 70.2524 71.3619 71.8588 70.6128C72.9451 70.1063 73.8401 69.41 74.512 68.4467C75.6429 66.8272 75.9038 64.8284 75.4905 62.6838C75.0797 60.5527 73.9957 58.2136 72.3423 55.7708L72.3381 55.7646L72.3338 55.7584C71.9407 55.1938 71.5213 54.6195 71.0811 54.0472C71.6121 53.5653 72.1325 53.0684 72.6217 52.5393C74.679 50.4044 76.1458 48.2906 76.9113 46.2682C77.6837 44.2275 77.7583 42.2231 76.9236 40.4329C76.0888 38.6427 74.5053 37.4115 72.4456 36.6914C70.4014 35.9768 67.8351 35.7421 64.8721 35.9473ZM53.5163 28.9973L53.5224 28.998L53.5286 28.9985C54.0769 29.0502 54.7995 29.4559 55.5932 30.564C56.3738 31.6536 57.113 33.279 57.7164 35.4083L57.7192 35.4185L57.7223 35.4286C57.8774 35.9397 58.0125 36.4849 58.1365 37.0641C56.3429 37.4944 54.5278 38.0483 52.684 38.7054C50.9573 37.7388 49.264 36.9001 47.6143 36.1626C48.2728 34.5323 48.996 33.0961 49.7705 31.9346C50.7096 30.5264 51.6648 29.6119 52.5867 29.182C52.9366 29.0188 53.2527 28.9696 53.5163 28.9973ZM47.2801 58.3924L47.2755 58.3891L47.2709 58.3858C46.1072 57.5677 44.9596 56.7059 43.8797 55.8415C43.9117 54.4586 43.9892 53.0256 44.1105 51.6083L44.1109 51.6026L44.1114 51.597C44.2139 50.2383 44.4071 48.8274 44.6408 47.3794C45.8458 46.7128 47.0863 46.0975 48.3805 45.494C49.7058 44.876 50.9734 44.3215 52.2263 43.841C53.4668 44.5886 54.6449 45.3633 55.7609 46.1647L55.7655 46.1679L55.7701 46.1713C56.9298 46.9866 58.0736 47.8453 59.1502 48.7067C59.0952 50.1119 59.0351 51.5091 58.9295 52.9621C58.8269 54.3202 58.6338 55.7303 58.4002 57.1777C57.1952 57.8443 55.9548 58.4595 54.6605 59.0631C53.3352 59.681 52.0676 60.2355 50.8147 60.7161C49.5742 59.9685 48.3961 59.1938 47.2801 58.3924ZM32.3573 38.8708L32.3608 38.8658L32.3642 38.8607C32.5124 38.6409 32.7534 38.4304 33.1032 38.2673C34.0073 37.8457 35.3089 37.6975 36.9889 37.8786C38.3751 38.0281 39.9471 38.3939 41.6377 38.9424C41.1349 40.6726 40.7009 42.5286 40.3356 44.4643C38.6424 45.4619 37.0666 46.5164 35.5915 47.59C35.2885 47.1893 34.9999 46.7882 34.7101 46.3851C34.6624 46.3188 34.6147 46.2525 34.5669 46.1861C33.3286 44.3605 32.5616 42.754 32.2294 41.4587C31.8907 40.1384 32.0444 39.3241 32.3573 38.8708ZM33.7768 55.3621L33.7872 55.3516L33.7974 55.3408C34.1671 54.9466 34.5754 54.5495 35.0054 54.1579C36.2653 55.4755 37.6483 56.8088 39.1294 58.1031C39.163 60.0432 39.2599 61.9411 39.4688 63.7471C36.9785 64.0539 34.8907 64.0284 33.3123 63.7376C31.4434 63.3933 30.5878 62.7412 30.3191 62.1649C30.0922 61.6784 30.0747 60.8509 30.6353 59.6072C31.1854 58.3867 32.2232 56.934 33.7768 55.3621ZM49.4857 75.5779L49.4797 75.5773L49.4735 75.5767C48.9252 75.5251 48.2026 75.1194 47.4089 74.0113C46.6283 72.9216 45.8891 71.2963 45.2857 69.1669L45.2829 69.1568L45.2798 69.1466C45.1247 68.6355 44.9896 68.0903 44.8656 67.5111C46.6592 67.0809 48.4742 66.5269 50.3181 65.8698C52.0448 66.8365 53.7381 67.6751 55.3878 68.4126C54.7293 70.043 54.0061 71.4792 53.2316 72.6406C52.2924 74.0488 51.3373 74.9633 50.4153 75.3933C50.0655 75.5564 49.7494 75.6057 49.4857 75.5779ZM70.6448 65.7044L70.6413 65.7095L70.6379 65.7145C70.4897 65.9344 70.2487 66.1448 69.8989 66.3079C68.9948 66.7295 67.6931 66.8777 66.0132 66.6967C64.6269 66.5472 63.055 66.1814 61.3643 65.6329C61.8672 63.9026 62.3012 62.0467 62.6664 60.1109C64.3596 59.1134 65.9355 58.0588 67.4105 56.9853C67.7136 57.3859 68.0021 57.787 68.292 58.1901C68.3397 58.2564 68.3874 58.3228 68.4352 58.3892C69.6735 60.2148 70.4405 61.8212 70.7727 63.1165C71.1114 64.4368 70.9577 65.2511 70.6448 65.7044ZM69.2227 49.2158L69.2136 49.225L69.2047 49.2345C68.835 49.6286 68.4267 50.0257 67.9966 50.4173C66.7368 49.0998 65.3538 47.7664 63.8727 46.4721C63.8391 44.532 63.7421 42.6341 63.5333 40.8281C66.0235 40.5213 68.1114 40.5468 69.6898 40.8376C71.5586 41.1819 72.4143 41.834 72.683 42.4103C72.9074 42.8914 72.9212 43.7203 72.3532 44.9724C71.7974 46.198 70.7578 47.6523 69.2227 49.2158ZM63.6797 52.7503C63.9081 52.9791 64.1331 53.2091 64.3558 53.4403C64.1069 53.6226 63.8529 53.804 63.594 53.9847C63.6102 53.7784 63.6237 53.5708 63.6334 53.363C63.6501 53.1591 63.6654 52.9545 63.6797 52.7503ZM56.9316 63.9336C56.6741 63.8182 56.4165 63.6998 56.159 63.5786C56.3262 63.5035 56.493 63.4273 56.6594 63.3497C56.8257 63.2721 56.9914 63.1933 57.1563 63.1135C57.0836 63.3887 57.0088 63.6621 56.9316 63.9336ZM44.5073 62.2073C44.6878 62.3404 44.8667 62.469 45.044 62.594C44.7294 62.6789 44.4178 62.7595 44.1089 62.8353C44.0752 62.5145 44.0432 62.1911 44.0137 61.8655C44.1776 61.9812 44.3423 62.0955 44.5073 62.2073ZM39.3686 51.2122C39.3519 51.4162 39.3367 51.6207 39.3224 51.8249C39.094 51.5961 38.8689 51.3661 38.6463 51.135C38.8952 50.9527 39.1492 50.7713 39.4081 50.5905C39.3919 50.7969 39.3784 51.0044 39.3686 51.2122ZM45.8458 41.4617C45.9184 41.1866 45.9933 40.9131 46.0704 40.6416C46.328 40.757 46.5855 40.8755 46.843 40.9967C46.6759 41.0717 46.509 41.148 46.3427 41.2255C46.1764 41.3031 46.0107 41.3819 45.8458 41.4617ZM58.4572 42.3158L57.9614 41.9803C58.2748 41.8957 58.5853 41.8155 58.8932 41.7399C58.9259 42.0517 58.9571 42.3658 58.9858 42.682C58.8108 42.558 58.6345 42.4357 58.4572 42.3158Z" fill="white" fill-opacity="0.5"/>
</g>
<g clip-path="url(#clip1_105_61)">
<path d="M164.261 43.2562L164.261 43.2562C166.305 43.4024 167.987 44.5761 170.129 46.1062L170.161 46.1294C171.851 47.3373 173.777 48.7136 176.222 49.6057C178.706 50.5118 181.685 50.9067 185.494 50.235C191.625 49.1539 195.769 46.0291 197.711 40.8191C197.912 40.2814 197.87 39.7356 197.614 39.2726C197.373 38.8352 196.981 38.541 196.586 38.3675C195.818 38.0307 194.753 38.0317 193.944 38.6606C192.41 39.8539 190.619 40.3839 188.519 40.2336L188.455 41.1453L188.519 40.2336C186.476 40.0873 184.793 38.9136 182.651 37.3834L182.619 37.3603C180.929 36.1525 179.003 34.7761 176.558 33.884C174.074 32.9778 171.096 32.583 167.287 33.2547C161.155 34.3358 157.011 37.4606 155.069 42.6707C154.869 43.2083 154.911 43.7541 155.166 44.2171C155.408 44.6545 155.799 44.9487 156.195 45.1222C156.962 45.459 158.027 45.458 158.836 44.8291C160.37 43.6358 162.161 43.1057 164.261 43.2562ZM152.642 63.6391C154.686 63.7853 156.368 64.959 158.51 66.4892C158.51 66.4892 158.51 66.4892 158.51 66.4892L158.542 66.5124C160.232 67.7202 162.158 69.0965 164.603 69.9886C167.087 70.8948 170.066 71.2896 173.875 70.618C180.006 69.5368 184.15 66.412 186.092 61.202C186.293 60.6644 186.251 60.1185 185.995 59.6555C185.754 59.2182 185.362 58.9239 184.967 58.7504C184.199 58.4137 183.134 58.4146 182.325 59.0436C180.791 60.2369 179 60.7669 176.9 60.6165L176.9 60.6165C174.857 60.4703 173.174 59.2965 171.033 57.7664C171.033 57.7665 171.033 57.7665 171.033 57.7664L171 57.7432C169.31 56.5354 167.384 55.1591 164.939 54.267C162.455 53.3608 159.477 52.966 155.668 53.6376C149.536 54.7188 145.392 57.8436 143.45 63.0536C143.25 63.5912 143.292 64.1371 143.547 64.6001C143.789 65.0374 144.18 65.3316 144.576 65.5052C145.343 65.8419 146.408 65.841 147.217 65.212C148.751 64.0187 150.542 63.4888 152.642 63.6391Z" fill="white" fill-opacity="0.5"/>
</g>
<g clip-path="url(#clip2_105_61)">
<path d="M425.71 19.4979L381.788 27.2426C378.241 27.868 375.873 31.2503 376.498 34.7971L384.243 78.7195C384.868 82.2663 388.25 84.6345 391.797 84.0092L435.72 76.2644C439.266 75.639 441.635 72.2568 441.009 68.7101L433.265 24.7876C432.639 21.2408 429.257 18.8725 425.71 19.4979Z" fill="white" fill-opacity="0.5" stroke="#27222A" stroke-width="2"/>
<path fill-rule="evenodd" clip-rule="evenodd" d="M418.097 66.751L419.038 72.0879C419.984 72.3796 421.069 72.5322 422.292 72.5457C423.516 72.5592 424.784 72.4503 426.097 72.2188C427.376 71.9933 428.57 71.6568 429.678 71.2091C430.786 70.7615 431.724 70.1805 432.493 69.466C433.261 68.7516 433.819 67.8966 434.165 66.9012C434.512 65.9058 434.567 64.741 434.332 63.4068C434.161 62.4395 433.867 61.6172 433.45 60.94C433.032 60.2627 432.501 59.6886 431.856 59.2177C431.211 58.7468 430.467 58.3533 429.626 58.0373C428.785 57.7214 427.851 57.4476 426.823 57.216C426.072 57.0505 425.394 56.8806 424.79 56.7063C424.185 56.5318 423.664 56.3373 423.224 56.1225C422.785 55.9076 422.432 55.6603 422.165 55.3807C421.897 55.1011 421.728 54.7612 421.658 54.3608C421.593 53.994 421.629 53.6465 421.767 53.3185C421.904 52.9905 422.126 52.6905 422.434 52.4185C422.741 52.1465 423.135 51.9079 423.615 51.7029C424.095 51.4979 424.641 51.3415 425.252 51.2336C425.697 51.1552 426.173 51.1057 426.68 51.0851C427.187 51.0645 427.702 51.0796 428.228 51.1303C428.753 51.181 429.27 51.2704 429.78 51.3982C430.29 51.5261 430.77 51.6937 431.219 51.9012L430.34 46.9145C429.473 46.7464 428.545 46.6721 427.557 46.6916C426.568 46.7112 425.451 46.8308 424.205 47.0505C422.937 47.2741 421.76 47.6221 420.673 48.0945C419.587 48.567 418.664 49.1682 417.903 49.8984C417.143 50.6286 416.592 51.4853 416.249 52.4686C415.907 53.4518 415.845 54.5662 416.065 55.8114C416.345 57.4014 417.043 58.6769 418.159 59.6381C419.274 60.5992 420.835 61.3042 422.841 61.753C423.628 61.9238 424.364 62.0977 425.049 62.275C425.734 62.4524 426.335 62.656 426.851 62.8859C427.368 63.1158 427.792 63.3907 428.123 63.7106C428.455 64.0304 428.662 64.4237 428.744 64.8908C428.805 65.2355 428.778 65.5698 428.663 65.8939C428.548 66.218 428.34 66.5182 428.039 66.7948C427.738 67.0715 427.345 67.3155 426.861 67.5271C426.376 67.7387 425.795 67.9042 425.116 68.0238C423.96 68.2278 422.778 68.227 421.572 68.0211C420.366 67.8155 419.207 67.3921 418.097 66.751ZM406.806 55.1838L413.652 53.9766L412.88 49.5969L393.797 52.9618L394.57 57.3414L401.383 56.1401L404.821 75.6406L410.245 74.6843L406.806 55.1838Z" fill="#27222A"/>
</g>
<g clip-path="url(#clip3_105_61)">
<path fill-rule="evenodd" clip-rule="evenodd" d="M289.796 24.5797C289.327 24.6623 289.349 25.2756 289.692 25.6054C289.944 25.8486 290.145 26.1303 290.306 26.4396C290.352 26.5277 290.377 26.6255 290.423 26.7136C290.444 26.7541 290.468 26.7944 290.488 26.8461L290.552 27.0827C290.838 28.3168 290.471 28.5392 290.34 29.3284C290.091 30.3378 290.379 31.3422 291.019 32.0616C291.024 32.0667 291.028 32.072 291.031 32.0778C291.09 32.1721 291.181 32.1159 291.152 32.009C290.337 29.0614 292.563 27.9463 293.201 26.8711C293.304 26.6973 293.323 26.4865 293.26 26.2944C293.004 25.515 292.2 25.0734 291.563 24.7638C291.003 24.5353 290.39 24.4715 289.796 24.5797ZM294.887 24.6711C294.662 24.6332 294.506 24.8039 294.517 25.0316L294.533 25.3091C294.537 25.3768 294.536 25.4447 294.53 25.5123L294.509 25.754L294.479 25.991C294.467 26.0788 294.448 26.1653 294.42 26.2494L294.345 26.4816L294.262 26.6538L294.198 26.8004C294.178 26.852 294.159 26.9035 294.136 26.952C294.081 27.0743 294.005 27.1869 293.94 27.3047C293.916 27.3484 293.889 27.3896 293.857 27.4238L293.612 27.6925C293.348 27.9868 293.029 28.2233 292.784 28.4919C292.604 28.6478 292.429 28.8344 292.293 29.0292L292.098 29.3338L291.93 29.6565L291.834 29.8662C291.8 29.9388 291.773 30.014 291.752 30.0912L291.688 30.33L291.637 30.6771C291.622 30.7639 291.61 30.851 291.6 30.9384C291.592 31.01 291.591 31.0821 291.596 31.154L291.602 31.2466L291.607 31.4034L291.651 31.7788L291.67 31.8894C291.686 31.9757 291.709 32.0605 291.74 32.1425L291.774 32.2339C291.805 32.316 291.825 32.4018 291.852 32.4852C291.874 32.5541 291.905 32.6167 291.948 32.6954L292.115 33.0039C292.162 33.0809 292.095 33.1777 292.006 33.1598L288.783 32.5098L287.067 32.3617L286.154 32.2974C285.272 32.2813 284.389 32.309 283.51 32.3806L283.422 32.396C281.055 32.5554 278.722 33.0427 276.489 33.8438L275.857 34.0905C275.431 34.2331 275.035 34.4156 274.657 34.5724L274.134 34.8156C274.066 34.847 274.001 34.8838 273.94 34.9254L273.489 35.2292L273.046 35.5325C273.005 35.5547 272.966 35.5807 272.93 35.61L272.677 35.8154C272.646 35.8408 272.611 35.8612 272.573 35.8759C272.541 35.8885 272.51 35.9054 272.483 35.926L272.126 36.1905L271.891 36.3897L271.771 36.4784L271.438 36.7624L271.127 37.0427L270.9 37.2674C270.885 37.282 270.871 37.298 270.86 37.3151L270.614 37.5838L270.426 37.7971L270.35 37.8781L270.219 38.028C270.183 38.0681 270.161 38.121 270.131 38.1647L269.92 38.4142C269.912 38.4239 269.908 38.4368 269.91 38.4493C269.913 38.4642 269.907 38.4792 269.896 38.4894C269.816 38.5634 269.754 38.6493 269.708 38.7339C269.699 38.7509 269.687 38.7659 269.671 38.7774C269.66 38.7854 269.651 38.795 269.643 38.806L269.537 38.9571C269.497 39.0144 269.466 39.0814 269.424 39.1378C269.41 39.1573 269.4 39.1816 269.387 39.2019L269.259 39.4055C269.24 39.4352 269.218 39.4631 269.194 39.4886C269.168 39.5169 269.145 39.5478 269.125 39.5809L268.91 39.9347L268.874 39.9861C268.507 40.5638 268.071 41.0947 267.576 41.5672C266.857 42.2684 266.045 42.8666 265.163 43.3446C264.592 43.558 264.022 43.9062 263.506 44.0424L263.164 44.1478L262.829 44.2968L262.503 44.4897L262.202 44.7005L261.931 44.9511C261.905 44.9731 261.88 44.9966 261.856 45.021C261.727 45.1515 261.61 45.2994 261.51 45.4529C261.487 45.488 261.467 45.5225 261.451 45.5539L261.261 45.8804L261.096 46.2249L260.995 46.488C260.97 46.5541 260.95 46.6222 260.934 46.6913L260.87 46.9859L260.821 47.2811C260.81 47.3473 260.803 47.4142 260.802 47.4813L260.797 47.7012C260.797 47.7136 260.798 47.726 260.8 47.7382C260.803 47.7551 260.803 47.7722 260.802 47.7892L260.783 47.9838C260.771 48.1116 260.776 48.2403 260.798 48.3666L260.845 48.6352C260.896 48.8146 260.979 48.9832 261.091 49.1327L261.29 49.368L261.414 49.4983C261.479 49.5656 261.549 49.627 261.627 49.6775C261.753 49.759 261.883 49.833 262.018 49.899C262.08 49.9298 262.142 49.9631 262.2 50.0015C262.514 50.2077 262.64 50.2975 263.077 50.4275L263.306 50.4958C263.312 50.4974 263.317 50.4977 263.323 50.4968C263.342 50.4933 263.361 50.5063 263.364 50.5259L263.372 50.5703C263.373 50.5754 263.374 50.5804 263.376 50.5851C263.462 50.8085 263.575 51.0207 263.711 51.2168L263.867 51.4598C263.889 51.5009 263.915 51.5398 263.945 51.5756C264.089 51.7464 264.241 51.9095 264.402 52.0641L264.611 52.2409C264.648 52.2721 264.687 52.3001 264.729 52.3244L264.984 52.4727C264.99 52.4762 264.997 52.4774 265.004 52.4762C265.011 52.475 265.018 52.4764 265.024 52.4802C265.416 52.7192 265.855 52.87 266.311 52.9218L266.38 52.9321C266.486 52.9396 266.571 53.0213 266.584 53.1267C266.671 53.829 266.773 54.4615 266.936 54.6817C267.235 55.1484 268.184 54.5267 268.341 55.0579C268.375 55.1704 268.41 55.2592 268.445 55.317C268.631 55.5956 269.148 54.7072 269.625 53.5873C269.773 53.2406 270.04 52.9542 270.391 52.8154C272.419 52.0123 274.588 51.6167 276.773 51.6537C279.155 51.6939 281.5 52.2471 283.648 53.2753C285.797 54.3035 287.699 55.7827 289.224 57.6121C290.75 59.4415 291.863 61.5782 292.488 63.8766C292.144 62.717 290.854 62.1557 289.899 62.1236C289.439 62.1081 289.125 62.4978 288.999 62.9405C288.797 63.6572 288.501 64.4389 288.045 65.1302C287.841 65.4393 287.398 65.2994 287.334 64.9347C287.253 64.4791 286.603 64.531 286.476 64.9761C286.317 65.5355 286.105 66.0795 285.846 66.6031C285.744 66.8099 285.553 66.961 285.325 66.9958C284.796 67.0766 284.255 67.0506 283.734 66.9178C283.096 66.7551 282.508 66.4373 282.023 65.9924L281.985 65.9509C281.917 65.8751 281.857 65.7921 281.807 65.7035L281.719 65.5502L281.679 65.4713C281.615 65.3454 281.569 65.2107 281.545 65.0715L281.489 64.757C281.488 64.7517 281.488 64.7463 281.487 64.741C281.456 64.5433 281.481 64.3317 281.538 64.1399L281.612 63.9353C281.643 63.8475 281.667 63.7567 281.677 63.6638C281.747 63.0336 281.629 62.5253 281.171 62.3119L281.065 62.268C280.958 62.2238 280.846 62.1927 280.731 62.1757L280.695 62.1704C280.617 62.1542 280.538 62.1445 280.459 62.1416L280.261 62.1343C280.164 62.1237 280.066 62.1258 279.969 62.1408L279.659 62.1728L279.54 62.1939C279.474 62.2055 279.409 62.2219 279.345 62.2427L279.142 62.3091L278.848 62.4285L278.579 62.5661L278.318 62.7473L278.061 62.9504C275.754 65.1137 277.087 68.5171 278.981 70.3581C279.465 70.8286 279.359 71.7944 278.789 72.1556C278.731 72.1923 278.685 72.227 278.652 72.2595C278.647 72.2642 278.644 72.2699 278.642 72.2764C278.636 72.2976 278.647 72.3201 278.667 72.328C280.09 72.8637 281.592 73.1556 283.112 73.1914C284.955 73.2247 286.786 72.8842 288.494 72.1904C290.202 71.4967 291.752 70.4641 293.05 69.1549C294.348 67.8458 295.367 66.2871 296.046 64.5733C296.678 62.9795 297.003 61.2822 297.006 59.5701C297.006 59.4882 297.122 59.4635 297.154 59.5387C297.244 59.7933 297.356 60.044 297.428 60.3242L297.537 60.688L297.548 60.7536L297.654 61.0956L297.76 61.5725L297.969 62.7526L297.978 62.9313L298.014 63.1378C298.028 63.2155 297.997 63.2985 298.011 63.3761C298.025 63.4542 298.036 63.5168 298.037 63.5793C298.039 63.6673 298.033 63.7561 298.048 63.8428C298.075 63.9929 298.051 64.1083 298.056 64.2607C298.056 64.2666 298.056 64.2724 298.057 64.2781C298.059 64.2869 298.059 64.2959 298.059 64.3048L298.044 64.6558C298.042 64.6853 298.044 64.7148 298.049 64.7438C298.071 64.8675 298.054 64.998 298.035 65.1288C298.032 65.1446 298.033 65.1607 298.035 65.1764C298.038 65.1896 298.038 65.2031 298.037 65.2165L298.001 65.5869C298 65.6016 298 65.6163 298.003 65.6309C298.005 65.6454 298.006 65.6601 298.005 65.6748L297.968 66.0547C297.967 66.0618 297.967 66.0689 297.969 66.0759C297.97 66.0834 297.97 66.091 297.969 66.0987L297.917 66.5474L297.833 66.9677L297.731 67.4138L297.691 67.6381C297.665 67.7825 297.615 67.9223 297.576 68.0635C297.56 68.1211 297.544 68.1803 297.522 68.2383C297.51 68.2715 297.501 68.306 297.499 68.3413L297.497 68.3676C297.496 68.3753 297.496 68.3747 297.496 68.3825C297.499 68.4183 297.454 68.4524 297.443 68.4869C296.839 70.4968 295.777 72.3396 294.341 73.8704L294.096 74.1103C294.057 74.1493 294.028 74.2009 293.987 74.2384C293.966 74.257 293.951 74.2855 293.932 74.3052L293.728 74.5133C293.709 74.5325 293.709 74.5633 293.727 74.5828C293.741 74.5968 293.761 74.6018 293.779 74.5957L294.314 74.4175C294.32 74.4154 294.327 74.4136 294.334 74.4124C294.342 74.411 294.349 74.4091 294.357 74.4066C294.815 74.2478 295.27 74.0781 295.72 73.8976L295.909 73.8192L296.181 73.7036L296.432 73.5918C297.572 73.1035 298.735 74.2479 297.985 75.2352C297.932 75.305 297.879 75.3746 297.825 75.4437C296.941 76.5805 297.969 78.306 299.199 77.557C300.446 76.7973 301.623 75.9173 302.711 74.9263C304.211 73.5597 305.517 72.0054 306.599 70.3073C307.139 69.4599 308.519 69.8264 308.286 70.8038C308.056 71.762 309.235 72.4836 309.794 71.6721C310.671 70.3978 311.417 69.0333 312.019 67.5988C312.703 65.9669 313.191 64.2648 313.476 62.5281C313.613 61.6926 314.791 61.5303 314.963 62.3594C315.121 63.1233 316.195 63.282 316.458 62.5478C321.771 47.7471 310.879 35.8785 306.512 32.8557C306.51 32.8547 306.509 32.8535 306.508 32.8519L306.484 32.8066C306.483 32.804 306.479 32.8053 306.479 32.8082C306.48 32.8105 306.477 32.8121 306.475 32.8108L306.467 32.8049C306.462 32.8016 306.455 32.8053 306.456 32.8111L306.499 33.3067C306.519 33.6273 306.53 33.9484 306.534 34.2696L306.459 35.2517C306.358 35.8908 306.206 36.5206 306.003 37.1349C305.619 38.2294 305.043 39.2465 304.302 40.1389L304.028 40.5027C303.604 40.997 303.122 41.4377 302.592 41.815L301.787 42.3625C301.219 42.6984 300.619 42.9777 299.996 43.1965L299.058 43.4971C298.195 43.697 297.311 43.7923 296.426 43.7809C296.237 43.7665 296.204 43.4725 296.382 43.4066C297.599 42.9547 298.726 42.2832 299.706 41.4224L300.392 40.7155L301.002 39.9546L301.534 39.1396C301.68 38.9077 301.809 38.6635 301.922 38.4192C301.967 38.3224 302.023 38.2265 302.053 38.1242L302.349 37.3735C302.563 36.7623 302.716 36.1315 302.806 35.4903C302.839 35.1689 302.869 34.8258 302.859 34.512C302.866 34.1727 302.878 33.8552 302.846 33.5453L302.742 32.5722L302.601 31.8986L302.304 30.982C302.202 30.6619 302.079 30.3456 301.916 30.0589C301.778 29.7903 301.637 29.4997 301.452 29.2169C301.289 28.9302 301.107 28.6692 300.904 28.4121L300.277 27.6664C299.815 27.2045 299.325 26.7717 298.809 26.3704C297.947 25.7401 296.978 25.2691 295.951 24.9796C295.887 24.9618 295.825 24.9392 295.765 24.9139C295.471 24.7917 295.178 24.7202 294.887 24.6711Z" fill="white" fill-opacity="0.5"/>
</g>
<defs>
<clipPath id="clip0_105_61">
<rect width="72" height="67.8139" fill="white" transform="translate(4.71381 36.5665) rotate(-25)"/>
</clipPath>
<clipPath id="clip1_105_61">
<rect width="60" height="46.4348" fill="white" transform="translate(137 34.4188) rotate(-10)"/>
</clipPath>
<clipPath id="clip2_105_61">
<rect width="60" height="60" fill="white" transform="translate(374 27.4188) rotate(-10)"/>
</clipPath>
<clipPath id="clip3_105_61">
<rect width="60" height="58.4047" fill="white" transform="translate(255 28.4188) rotate(-10)"/>
</clipPath>
</defs>
</svg>
